<?xml version="1.0" standalone="no"?>
<!DOCTYPE svg PUBLIC "-//W3C//DTD SVG 20010904//EN"
 "http://www.w3.org/TR/2001/REC-SVG-20010904/DTD/svg10.dtd">
<svg version="1.0" xmlns="http://www.w3.org/2000/svg"
 width="1280.000000pt" height="1280.000000pt" viewBox="0 0 1280.000000 1280.000000"
 preserveAspectRatio="xMidYMid meet">
<metadata>
Created by potrace 1.14, written by Peter Selinger 2001-2017
</metadata>
<g transform="translate(0.000000,1280.000000) scale(0.100000,-0.100000)"
fill="#000000" stroke="none">
<path d="M0 6400 l0 -6400 6400 0 6400 0 0 6400 0 6400 -6400 0 -6400 0 0
-6400z m6440 5558 c11 -18 22 -45 25 -60 6 -26 8 -27 54 -21 36 4 50 2 60 -11
12 -14 9 -21 -24 -53 -21 -20 -46 -55 -56 -78 -21 -47 -73 -264 -66 -272 10
-9 27 36 41 109 31 160 80 238 151 238 28 0 65 -20 65 -35 0 -2 -23 -16 -50
-31 -83 -45 -119 -106 -217 -364 -14 -36 -31 -103 -38 -150 l-14 -85 3 75 c1
44 -3 91 -11 114 -10 29 -10 41 -2 47 8 5 8 17 -2 45 -9 28 -14 34 -17 20 -2
-11 -16 12 -36 61 -45 112 -82 171 -140 226 -54 50 -54 58 2 73 60 16 97 -34
117 -161 14 -87 38 -155 53 -155 18 0 -57 272 -87 316 -39 56 -27 79 34 70
l43 -7 7 46 c5 40 11 49 38 60 44 19 45 19 67 -17z m-460 -282 c76 -50 108
-136 140 -371 31 -234 39 -265 76 -325 29 -48 54 -108 54 -132 0 -4 -19 -12
-42 -18 -24 -6 -56 -17 -73 -25 -45 -20 -92 -27 -110 -18 -11 7 5 17 65 42 45
18 79 38 77 44 -9 29 -229 116 -310 123 -151 14 -579 -95 -877 -223 -255 -110
-389 -181 -595 -317 -85 -56 -267 -188 -291 -211 -6 -5 -28 -24 -50 -41 -21
-18 -90 -73 -153 -124 -62 -50 -115 -89 -117 -87 -2 2 5 12 16 22 11 10 20 23
20 29 0 6 -4 6 -12 -2 -9 -9 -15 -9 -26 0 -11 10 -17 9 -27 -6 -8 -10 -21 -16
-31 -14 -20 4 44 63 256 234 342 277 597 441 857 550 51 22 93 42 93 46 0 3
-16 12 -35 18 -39 13 -75 56 -75 90 0 12 16 38 35 57 36 36 41 43 27 43 -12 0
-133 -79 -162 -105 -22 -20 -199 -142 -225 -155 -14 -7 -99 -64 -105 -70 -3
-3 -43 -27 -90 -54 -47 -27 -87 -52 -90 -55 -8 -9 -62 -45 -92 -60 -16 -8 -28
-18 -28 -23 0 -4 -5 -8 -11 -8 -6 0 -16 -6 -23 -12 -28 -27 -66 -58 -72 -58
-11 0 -63 -48 -58 -53 3 -2 -7 -8 -22 -11 -22 -6 -32 -3 -46 16 l-17 23 6 -25
c3 -14 11 -29 17 -33 7 -5 3 -7 -9 -5 -11 2 -20 11 -20 20 0 9 -4 20 -9 25 -5
4 -6 3 -2 -4 7 -14 -6 -23 -54 -40 l-35 -12 45 40 c291 260 612 479 949 647
l134 66 -7 73 c-6 72 -5 73 18 73 27 0 42 -14 51 -51 6 -26 7 -26 56 26 66 70
173 125 243 125 68 0 196 -39 196 -59 0 -3 -55 -5 -122 -3 -136 2 -166 -5
-247 -61 -55 -38 -131 -111 -131 -126 0 -6 -7 -11 -16 -11 -12 0 -14 -5 -9
-17 4 -10 11 -49 14 -88 l6 -70 65 4 65 3 -25 -21 c-38 -31 -8 -27 122 18 155
54 258 86 353 110 196 50 401 65 472 36 43 -18 95 -19 111 -3 7 7 12 26 12 42
l0 31 -24 -30 c-22 -26 -27 -29 -45 -17 -11 6 -29 12 -39 12 -11 0 -32 11 -48
25 -16 14 -37 28 -46 31 -9 3 -20 14 -23 25 -8 25 -22 24 -87 -6 -75 -35 -140
-34 -199 3 -54 35 -159 146 -195 207 -25 44 -26 47 -9 65 10 11 29 20 42 20
20 0 23 -4 18 -20 -23 -71 177 -280 267 -280 23 0 122 51 132 69 4 5 -5 51
-18 103 -13 51 -22 97 -19 102 3 4 24 -27 47 -71 23 -44 66 -109 95 -144 30
-35 58 -74 64 -86 11 -25 36 -30 54 -12 12 12 1 65 -17 83 -14 14 -12 26 4 26
21 0 29 35 28 110 -2 93 -11 160 -27 195 -19 41 -84 102 -117 110 -46 12 -96
-12 -118 -55 -11 -22 -20 -45 -20 -53 0 -7 -7 -22 -15 -33 -13 -17 -14 -14
-15 43 0 56 3 66 31 98 52 59 121 63 199 11z m1007 14 c41 -25 59 -53 76 -118
l13 -52 31 43 c55 78 152 100 261 59 72 -28 99 -46 118 -83 21 -41 10 -49 -24
-16 -40 38 -130 77 -180 77 -63 0 -107 -22 -139 -71 -25 -37 -28 -52 -28 -119
0 -58 -3 -76 -12 -73 -7 3 -13 -2 -13 -11 0 -9 -4 -16 -9 -16 -11 0 -20 35
-22 85 l-1 40 -9 -33 c-6 -21 -6 -52 0 -85 5 -29 6 -56 1 -61 -5 -5 -29 -8
-54 -8 -52 1 -57 -8 -20 -37 57 -45 112 -37 213 32 49 33 50 34 29 45 -21 10
-21 11 11 11 62 2 141 80 141 139 0 24 -56 74 -79 70 -22 -4 -26 -51 -6 -81
14 -22 14 -25 0 -37 -19 -15 -32 -6 -17 12 8 10 5 13 -13 13 -18 0 -21 -3 -13
-12 16 -19 -7 -16 -26 3 -22 22 -20 76 5 108 38 48 122 30 173 -37 29 -38 34
-56 11 -37 -12 10 -15 9 -15 -6 0 -11 -3 -30 -7 -43 -4 -17 -3 -22 5 -17 21
12 13 -12 -8 -27 -11 -8 -17 -17 -12 -22 4 -4 -1 -5 -10 -2 -11 4 -15 2 -12
-7 7 -18 -72 -86 -148 -127 -100 -53 -175 -46 -254 24 -22 18 -22 18 -38 -14
-9 -18 -16 -38 -16 -46 0 -7 -9 -13 -20 -13 -27 0 -25 8 10 63 17 26 30 53 30
60 0 17 -35 -22 -59 -66 -23 -42 -26 -68 -10 -84 7 -7 -5 -8 -42 -2 -29 5 -56
14 -60 20 -4 7 -1 29 7 51 20 57 2 46 -30 -19 -25 -50 -30 -55 -37 -38 -8 18
-9 17 -7 -5 0 -14 -1 -32 -4 -40 -3 -8 -18 -52 -32 -96 -97 -308 -152 -399
-385 -639 -189 -194 -236 -260 -272 -378 -17 -55 -21 -87 -17 -165 3 -87 7
-106 40 -173 63 -134 176 -227 311 -255 281 -60 547 134 547 399 0 91 -28 155
-94 215 -64 59 -124 83 -221 89 -96 6 -175 -19 -237 -75 -84 -76 -128 -204
-108 -314 12 -65 46 -140 89 -198 l26 -34 -32 22 c-20 15 -46 51 -70 99 -36
73 -38 82 -38 172 0 87 3 102 31 161 114 238 405 279 599 86 211 -212 69 -562
-265 -651 -177 -47 -369 10 -506 150 -119 122 -158 231 -158 445 -1 165 18
242 99 405 69 140 143 234 372 471 101 104 196 207 212 229 43 59 91 152 100
193 4 21 12 36 17 35 5 -1 9 17 9 40 0 32 4 41 15 39 12 -3 13 -1 3 9 -17 17
-17 39 0 39 9 0 11 12 9 38 -8 85 49 194 127 243 53 34 102 37 148 9z m-1372
-80 c74 -36 121 -88 143 -160 11 -36 23 -91 27 -121 9 -76 -5 -81 -101 -34
-41 19 -78 35 -83 35 -5 0 -14 7 -21 15 -15 18 -8 19 51 1 61 -19 79 -8 69 41
-15 81 -83 172 -148 200 -55 23 -154 -8 -206 -66 -25 -28 -40 -27 -25 2 53
103 182 141 294 87z m-56 -104 c19 -23 -17 -36 -75 -27 l-49 7 30 17 c37 20
79 22 94 3z m438 -48 c20 -42 22 -58 12 -86 -11 -28 -57 -82 -71 -82 -7 0 -7
10 7 100 11 78 15 90 29 90 7 0 17 -10 23 -22z m1708 -99 c22 -10 71 -44 109
-74 38 -30 72 -55 77 -55 4 0 17 14 29 30 32 45 44 38 35 -17 -4 -27 -8 -65
-9 -87 -1 -37 0 -39 50 -57 134 -50 504 -274 744 -449 135 -99 400 -326 400
-343 0 -5 -9 -2 -19 7 -11 10 -25 15 -32 10 -7 -4 -10 -3 -6 2 3 5 -6 14 -19
21 -23 11 -35 1 -14 -12 6 -4 7 -11 4 -17 -4 -7 -14 -2 -25 13 -16 20 -20 22
-29 9 -9 -13 -14 -7 -11 13 1 6 -22 11 -41 8 -5 0 -8 3 -8 8 0 5 -9 13 -21 16
-11 4 -18 9 -15 12 3 3 -16 24 -41 47 -26 22 -58 52 -72 65 -14 13 -44 35 -66
49 -22 14 -56 38 -75 54 -19 15 -40 28 -46 28 -7 0 -14 4 -16 8 -4 12 -139 92
-155 92 -7 0 -13 4 -13 9 0 4 -26 23 -57 40 -79 44 -124 77 -115 86 4 3 2 6
-3 4 -19 -4 -64 13 -62 24 1 6 -2 11 -8 12 -10 0 -20 6 -114 67 -25 15 -48 28
-52 28 -12 0 -109 62 -109 70 0 10 -106 91 -122 94 -26 3 -78 29 -78 37 0 5
-3 8 -7 7 -5 -1 -40 16 -80 40 -51 30 -91 45 -142 54 -39 7 -71 15 -71 19 0
12 53 28 135 43 88 15 110 13 170 -15z m-2500 -98 c-6 -5 -21 -12 -35 -15
l-25 -7 25 15 c28 17 50 21 35 7z m8 -136 c15 -19 37 -35 48 -35 11 0 46 14
79 30 33 17 62 30 65 30 3 0 5 -10 5 -23 0 -56 -65 -97 -155 -97 -47 0 -60 4
-75 23 -26 30 -35 74 -20 92 17 21 22 19 53 -20z m2272 15 c33 -31 80 -36 101
-11 22 25 47 27 64 6 9 -11 9 -15 1 -15 -7 0 -10 -4 -7 -9 3 -4 -6 -18 -19
-31 -13 -13 -22 -27 -19 -31 9 -15 -94 -10 -132 6 -56 23 -68 40 -54 75 14 35
35 38 65 10z m-1120 -82 c-5 -29 -10 -47 -13 -40 -5 17 8 106 15 99 3 -3 2
-30 -2 -59z m850 7 c188 -33 510 -129 660 -196 468 -210 798 -426 1098 -719
133 -129 174 -176 163 -188 -4 -3 -11 0 -16 8 -7 11 -12 12 -21 3 -9 -9 -8
-16 5 -28 9 -9 16 -19 16 -21 0 -12 -40 22 -180 152 -103 97 -283 240 -435
347 -258 182 -470 297 -700 378 -66 23 -148 52 -182 65 -169 65 -459 124 -609
124 -143 0 -183 -12 -244 -70 -70 -68 -67 -78 8 -23 36 27 38 26 17 -13 -8
-16 -15 -37 -15 -46 0 -27 45 -52 81 -44 43 8 27 -11 -21 -25 -34 -10 -42 -9
-72 9 -45 29 -88 85 -88 118 0 62 79 147 169 181 45 17 236 11 366 -12z m710
-43 c18 -13 45 -61 45 -80 0 -24 -35 -56 -51 -46 -8 5 -10 3 -4 -6 6 -10 4
-12 -9 -7 -10 4 -29 10 -42 13 -32 8 -30 14 11 54 27 26 35 40 30 57 -5 23 2
29 20 15z m-2053 -73 c33 -18 18 -44 -27 -47 -87 -5 -214 -24 -300 -43 -91
-21 -382 -114 -400 -129 -5 -4 -62 -29 -125 -55 -128 -51 -391 -188 -502 -261
-136 -88 -223 -148 -265 -182 -25 -20 -47 -31 -54 -26 -8 5 -10 2 -6 -9 6 -17
-18 -31 -35 -20 -6 3 -8 1 -5 -4 4 -6 -26 -39 -66 -74 -39 -35 -81 -73 -92
-84 -12 -12 -26 -20 -32 -18 -6 2 -17 -3 -25 -11 -13 -12 -16 -11 -27 6 -10
16 -15 17 -27 7 -8 -6 -17 -9 -21 -5 -9 9 25 39 223 203 220 182 414 311 647
433 145 75 290 136 507 213 78 28 261 78 375 103 113 24 215 26 257 3z m1344
-4 c364 -63 812 -240 1139 -452 183 -118 280 -193 475 -363 156 -136 193 -173
196 -198 2 -15 1 -14 -12 3 -9 12 -24 19 -36 17 -15 -3 -19 0 -15 11 4 10 -1
14 -16 13 -14 -1 -42 16 -72 43 -28 26 -60 52 -70 59 -11 7 -14 10 -6 6 10 -5
12 -3 6 5 -4 7 -15 11 -25 8 -13 -3 -17 0 -13 9 3 9 -1 14 -12 14 -10 0 -13 5
-9 12 5 7 2 9 -8 5 -15 -5 -39 9 -79 46 -11 9 -22 18 -26 18 -12 2 -53 36 -53
43 0 4 10 2 23 -4 21 -11 21 -11 2 4 -11 8 -28 23 -39 33 -18 17 -18 17 -6 -6
11 -22 9 -21 -31 8 -284 204 -462 299 -859 457 -52 20 -97 41 -100 45 -3 5
-30 12 -60 18 -30 5 -89 19 -130 31 -127 37 -182 47 -274 54 -85 6 -91 8 -118
39 -15 17 -27 36 -28 41 0 11 138 1 256 -19z m-268 -46 c62 -35 66 -59 12 -70
-40 -8 -50 -5 -50 19 -1 27 -33 62 -65 71 -29 9 -29 9 10 10 27 1 57 -9 93
-30z m-960 -26 c-2 -28 -7 -37 -18 -34 -30 7 -45 9 -57 10 -19 1 -16 39 5 50
9 6 30 11 45 11 27 0 28 -2 25 -37z m-2308 -560 c0 -225 0 -909 0 -1520 l0
-1113 67 0 c412 0 806 -219 991 -550 56 -101 94 -226 107 -360 8 -81 -10 -222
-35 -274 -11 -22 -18 -41 -16 -43 1 -2 22 4 46 12 76 27 208 39 280 27 132
-23 261 -110 344 -230 50 -73 22 -57 -49 28 -37 44 -69 80 -71 80 -3 0 -46
-28 -97 -62 -120 -80 -207 -170 -248 -256 -28 -58 -32 -78 -33 -152 -1 -74 3
-93 27 -141 39 -81 115 -151 222 -204 49 -25 95 -45 101 -45 5 0 33 11 60 24
27 13 65 28 84 34 19 5 73 26 120 47 47 20 112 47 145 60 33 12 89 36 125 53
96 46 322 143 430 186 l95 38 -3 1276 c-2 1274 -7 1452 -37 1495 -21 31 -20
34 28 58 23 12 70 41 104 65 34 24 66 44 72 44 8 0 11 -420 11 -1430 0 -1138
3 -1430 13 -1429 21 1 193 87 176 88 -14 1 -16 15 -16 89 -1 73 1 80 7 42 5
-26 6 37 4 145 -5 197 -18 2198 -15 2295 3 93 1 91 91 84 l78 -7 58 54 c31 30
67 63 79 74 39 36 170 142 198 160 l28 18 55 -59 c73 -78 124 -155 189 -289
77 -157 142 -376 255 -857 45 -192 82 -316 107 -357 64 -103 157 -150 266
-136 45 6 58 14 99 55 26 28 52 65 58 87 15 53 24 854 12 1065 -8 143 -13 173
-31 204 -12 20 -18 40 -14 44 4 4 42 29 83 54 78 48 104 55 133 33 16 -11 17
-60 15 -707 l-3 -695 -25 -50 c-37 -73 -123 -156 -205 -196 -62 -30 -80 -34
-165 -37 -110 -4 -210 15 -268 52 -59 37 -127 119 -156 188 -14 35 -62 212
-107 393 -129 527 -199 750 -263 845 -48 72 -122 145 -162 160 -38 15 -91 12
-108 -6 -19 -19 -21 -38 -22 -279 0 -104 -4 -682 -8 -1282 l-8 -1093 39 14
c21 8 73 30 116 50 72 32 77 37 67 56 -13 24 4 28 18 4 10 -17 25 -13 167 48
306 133 365 158 370 158 3 0 42 17 88 39 45 21 147 67 227 101 80 34 196 87
258 116 62 30 115 54 117 54 4 0 211 91 376 165 52 23 158 73 235 109 l139 67
-1 1317 c-1 724 0 1308 3 1297 10 -40 25 -41 21 -2 -4 36 5 50 15 25 3 -7 5
27 5 75 0 49 3 91 6 95 4 3 5 -621 4 -1386 -2 -923 0 -1392 7 -1392 6 0 75 33
155 73 l145 72 3 80 c5 106 12 109 12 6 0 -75 2 -82 18 -76 9 4 35 14 58 22
l41 14 6 277 c6 282 19 1415 18 1552 0 41 -3 133 -5 204 -3 72 -1 136 4 145 7
12 9 6 10 -23 0 -64 10 -35 20 55 5 59 5 86 -3 91 -8 5 -8 13 0 31 8 17 23 26
50 31 112 20 184 65 244 152 31 45 49 56 49 29 0 -8 -14 -47 -32 -85 -21 -49
-34 -67 -39 -58 -7 10 -9 9 -9 -3 0 -9 -8 -23 -19 -33 -12 -11 -16 -25 -13
-43 3 -18 1 -24 -7 -19 -6 4 -11 5 -11 2 0 -2 -3 -13 -6 -23 -5 -15 -4 -15 5
-3 9 13 11 12 11 -5 1 -16 4 -14 15 10 17 34 15 26 -15 -95 -12 -47 -26 -93
-31 -103 -18 -34 -21 -132 -6 -224 17 -100 41 -145 147 -268 28 -33 85 -124
128 -205 90 -171 251 -526 288 -637 34 -101 67 -169 103 -212 l29 -35 43 14
c61 19 66 26 37 49 -13 11 -35 40 -48 65 -20 37 -22 50 -14 73 9 24 5 39 -34
113 -90 172 -215 406 -231 430 -33 53 -111 255 -111 289 0 11 20 36 45 58 25
20 45 41 45 45 0 22 -131 -15 -171 -49 -32 -27 -62 -14 -109 44 -52 65 -79
111 -80 134 0 9 -9 45 -20 79 -11 34 -20 77 -19 94 1 30 1 30 13 -9 17 -60 72
-161 134 -247 l55 -78 31 24 c78 59 149 73 186 36 29 -29 25 -47 -17 -70 -73
-38 -76 -43 -64 -98 12 -57 51 -150 80 -190 27 -39 281 -543 281 -559 0 -16 8
-16 40 2 35 20 84 18 110 -3 l22 -18 -17 -78 c-9 -42 -15 -79 -13 -82 7 -7
208 95 208 106 0 4 -18 23 -40 40 -54 43 -68 102 -34 141 8 9 32 21 54 28 75
22 98 -16 65 -109 -17 -49 -20 -90 -5 -90 26 0 238 114 287 154 66 55 88 59
78 16 -10 -46 21 -131 63 -175 21 -21 64 -58 97 -83 33 -24 63 -50 68 -57 4
-8 3 -44 -3 -82 -17 -117 -19 -157 -9 -203 12 -52 32 -78 77 -97 32 -13 48
-51 16 -39 -9 3 -35 6 -60 6 -34 0 -42 3 -38 15 4 8 2 15 -3 15 -21 0 -34 84
-32 205 1 69 6 128 10 131 20 12 6 33 -45 68 -74 51 -87 63 -126 121 -19 28
-37 52 -42 53 -4 2 -8 12 -8 23 0 11 -7 19 -17 20 -11 0 -13 3 -5 6 6 2 12 12
12 21 0 13 -4 12 -22 -5 -13 -11 -33 -26 -45 -32 -14 -7 -23 -21 -23 -34 0
-26 13 -49 26 -46 20 4 28 -2 14 -11 -25 -15 7 -56 102 -131 48 -38 88 -73 88
-78 0 -4 -8 -15 -18 -24 -16 -14 -18 -29 -15 -99 3 -52 -1 -100 -9 -128 -13
-42 -16 -45 -49 -45 -28 0 -35 -4 -37 -22 -3 -23 -22 -33 -22 -11 0 19 -32 48
-53 48 -11 0 -30 -11 -42 -24 -13 -14 -25 -23 -27 -20 -3 2 -38 -11 -79 -29
-41 -19 -104 -44 -142 -57 l-67 -24 22 -23 c22 -23 18 -47 -4 -25 -15 15 -80
16 -95 1 -6 -6 -9 -19 -5 -28 5 -14 3 -14 -10 -3 -12 9 -22 10 -35 3 -32 -17
-169 -68 -204 -76 -49 -11 -55 -16 -28 -31 32 -18 11 -17 -41 1 -55 19 -60 19
-60 -5 0 -18 -4 -20 -34 -15 -25 5 -102 -10 -278 -53 -133 -33 -260 -64 -280
-67 -35 -7 -37 -9 -26 -29 6 -11 12 -22 13 -24 6 -7 297 65 425 105 63 20 122
38 130 40 8 3 4 -4 -10 -16 -41 -34 -218 -87 -420 -126 -125 -24 -122 -23
-108 -48 6 -12 16 -25 22 -29 7 -5 5 -13 -7 -25 -13 -13 -21 -15 -34 -7 -25
16 -87 108 -128 192 -22 43 -42 71 -48 68 -178 -76 -324 -142 -335 -151 -2 -2
9 -25 24 -52 56 -101 114 -213 114 -223 0 -5 -6 -10 -13 -10 -6 0 -34 42 -60
93 -94 181 -96 184 -127 167 -12 -6 -24 -9 -27 -6 -3 3 6 11 21 17 27 13 32
25 17 47 -6 11 -31 3 -112 -36 -57 -27 -130 -60 -161 -73 -58 -23 -69 -37 -45
-57 8 -7 19 -6 37 3 14 8 34 14 45 14 13 -1 5 -8 -22 -20 -46 -21 -51 -30 -29
-48 13 -11 58 2 121 37 6 3 6 1 2 -4 -4 -4 -29 -20 -54 -34 -55 -30 -61 -42
-34 -69 10 -10 17 -22 14 -25 -3 -3 13 -41 36 -86 40 -77 46 -115 15 -89 -8 6
-14 15 -14 20 0 4 -21 51 -47 104 -40 83 -49 95 -67 90 -20 -6 -20 -5 -3 8 16
14 16 17 -9 65 l-26 50 -51 -23 c-29 -12 -83 -35 -122 -50 -38 -15 -79 -34
-90 -41 -22 -16 -35 -18 -35 -6 0 10 74 47 185 92 96 39 99 42 90 70 -9 28
-21 25 -179 -48 -144 -66 -143 -64 -95 -152 5 -8 15 -30 23 -47 17 -37 23 -39
73 -18 53 22 54 17 1 -10 l-47 -25 59 -115 c33 -63 55 -117 51 -120 -12 -7
-23 9 -76 113 -25 50 -52 92 -59 92 -8 0 -12 9 -9 23 8 46 -9 51 -83 24 -120
-43 -214 -90 -214 -107 0 -8 7 -25 15 -37 37 -53 126 -246 117 -255 -6 -6 -37
45 -82 137 -58 116 -76 145 -89 139 -9 -3 -38 -14 -66 -24 -84 -30 -175 -72
-175 -81 0 -10 21 -54 91 -191 50 -100 56 -118 39 -118 -11 0 -200 374 -200
395 0 7 -7 18 -15 25 -16 13 -19 13 -169 -54 -94 -41 -100 -46 -82 -71 13 -18
18 -17 130 29 64 27 119 46 123 43 3 -4 -5 -11 -18 -16 -95 -38 -204 -90 -207
-99 -2 -6 6 -20 17 -31 12 -12 21 -27 21 -34 0 -19 56 -122 66 -120 5 1 10
-11 10 -25 1 -15 18 -55 38 -89 20 -34 36 -67 36 -73 0 -35 -33 16 -124 195
-56 110 -108 210 -114 222 l-12 22 -58 -28 c-31 -16 -79 -36 -107 -46 -65 -24
-69 -28 -48 -53 l18 -21 100 40 c55 21 104 38 109 36 12 -4 -73 -44 -151 -72
-58 -21 -61 -27 -35 -66 l17 -27 99 44 c55 25 104 43 110 41 13 -5 -70 -47
-141 -72 -34 -12 -53 -24 -52 -34 0 -9 19 -54 42 -101 37 -76 45 -85 67 -82
23 2 23 1 8 -11 -16 -12 -15 -16 8 -54 14 -24 20 -44 15 -48 -6 -3 -21 14 -34
37 -44 77 -131 242 -165 313 -49 102 -43 99 -125 61 -40 -18 -84 -36 -99 -39
-30 -8 -38 -36 -15 -55 9 -8 34 -1 91 24 80 34 106 41 106 26 0 -5 -36 -21
-81 -37 -82 -28 -101 -45 -81 -74 6 -9 21 -36 32 -61 12 -25 35 -74 52 -110
17 -35 43 -89 57 -120 14 -30 27 -58 29 -62 2 -5 -1 -8 -7 -8 -6 0 -50 78 -96
173 -113 230 -99 209 -132 192 -16 -8 -57 -29 -93 -45 -35 -17 -66 -33 -68
-35 -2 -2 5 -21 16 -42 39 -73 162 -339 162 -349 0 -2 -5 -4 -11 -4 -5 0 -15
15 -21 33 -7 17 -32 70 -57 117 -24 47 -51 100 -60 118 -18 38 -22 38 -81 11
-112 -52 -122 -43 -12 11 34 17 62 35 62 41 0 9 -40 90 -59 118 -7 12 -22 8
-85 -19 -78 -34 -85 -43 -63 -74 12 -16 17 -15 76 13 36 17 68 28 74 24 13 -8
-2 -18 -63 -44 -30 -12 -59 -25 -63 -29 -4 -4 30 -86 77 -183 90 -187 102
-217 89 -217 -4 0 -51 87 -102 193 -52 105 -95 193 -96 195 -1 1 -28 -10 -61
-24 -32 -14 -69 -30 -81 -35 -22 -8 -22 -8 21 -106 24 -54 65 -142 90 -196 25
-55 46 -103 46 -108 0 -18 -19 -8 -26 14 -4 12 -35 80 -70 150 -34 71 -70 151
-79 178 -10 30 -22 48 -29 45 -6 -3 -41 -17 -78 -32 -38 -16 -68 -31 -68 -35
0 -5 19 -43 41 -86 83 -158 149 -291 149 -303 0 -30 -23 4 -74 106 -30 62 -65
129 -78 150 -13 22 -30 55 -38 74 -7 19 -16 38 -20 43 -8 9 -130 -43 -130 -55
0 -5 7 -22 16 -39 16 -32 33 -33 79 -5 31 19 55 26 55 17 0 -5 -15 -14 -32
-22 -18 -7 -43 -20 -54 -28 l-22 -16 52 -100 c29 -55 58 -113 64 -130 7 -16
16 -40 22 -52 6 -15 6 -23 0 -23 -6 0 -32 46 -59 103 -27 56 -62 125 -78 152
-16 28 -38 71 -48 98 -10 26 -19 47 -21 47 -1 0 -25 -11 -52 -25 -28 -14 -55
-25 -60 -25 -22 0 -22 -21 0 -59 l24 -40 43 20 c45 20 82 26 66 10 -6 -5 -27
-14 -47 -21 -21 -6 -40 -15 -43 -19 -2 -5 27 -72 66 -150 39 -77 69 -147 66
-153 -2 -7 -34 46 -70 117 -89 177 -81 169 -139 147 -27 -9 -48 -23 -48 -31 0
-8 27 -73 60 -143 33 -71 60 -134 60 -139 0 -29 -22 7 -79 129 -36 75 -68 141
-71 145 -5 6 -95 -25 -108 -37 -1 -2 29 -68 67 -147 63 -128 78 -171 52 -143
-5 5 -40 70 -78 146 l-69 136 -37 -22 c-20 -13 -40 -25 -42 -28 -3 -3 24 -66
60 -140 63 -131 73 -158 58 -158 -7 0 -95 177 -131 263 -10 23 -16 26 -39 21
-52 -12 -64 -23 -57 -49 13 -50 -14 -23 -44 45 -17 38 -35 70 -41 70 -16 0
-61 -23 -61 -31 0 -4 8 -21 18 -39 15 -27 21 -30 47 -26 l30 6 -22 -18 c-20
-16 -21 -21 -11 -59 11 -39 14 -41 40 -36 34 7 37 -10 6 -31 -12 -9 -25 -16
-28 -16 -3 0 -19 25 -35 55 -15 30 -34 55 -42 55 -16 0 -16 5 -2 28 9 15 8 24
-6 45 -18 28 -31 32 -54 18 -11 -7 -9 -17 12 -56 29 -51 28 -65 -7 -65 -12 0
-30 -6 -39 -12 -15 -12 -13 -19 17 -88 18 -41 51 -110 75 -153 28 -51 37 -77
28 -77 -8 0 -45 65 -87 151 -58 121 -76 149 -89 143 -9 -4 -28 -9 -43 -12 -16
-2 -28 -9 -28 -15 0 -5 34 -75 75 -154 42 -79 73 -148 69 -154 -3 -6 -38 52
-76 128 -85 166 -86 168 -122 152 -30 -14 -29 -20 15 -109 16 -33 29 -61 29
-64 0 -3 15 -37 34 -75 19 -38 31 -72 28 -75 -10 -10 -22 -6 -22 7 0 7 -21 55
-47 107 -26 52 -48 102 -48 110 0 12 -16 42 -42 79 -1 2 -18 -4 -37 -13 -33
-15 -34 -19 -25 -43 14 -38 27 -51 47 -48 9 1 11 0 5 -2 -22 -7 -15 -32 37
-134 29 -59 45 -101 39 -105 -6 -3 -11 -4 -12 -3 -1 2 -25 50 -52 107 -27 56
-55 102 -63 102 -7 0 -22 -5 -33 -11 -19 -10 -17 -15 36 -114 58 -109 61 -115
45 -115 -5 0 -42 64 -81 143 -39 78 -75 146 -80 152 -7 6 -20 4 -40 -8 -45
-25 -54 -22 -55 23 -1 38 -1 39 13 20 15 -21 30 -25 51 -11 11 6 10 15 -4 44
-19 40 -34 46 -54 22 -7 -8 -20 -15 -29 -15 -10 0 -26 -6 -37 -14 -19 -15 -19
-16 5 -61 13 -25 22 -47 20 -49 -10 -9 -149 -75 -192 -91 -52 -20 -66 -14 -67
27 0 19 107 78 141 78 11 0 18 4 15 9 -9 14 20 21 33 8 9 -9 10 -8 5 7 -5 13
-4 17 4 12 8 -5 12 0 12 13 0 12 -2 21 -5 21 -3 0 -55 -25 -115 -55 -60 -30
-114 -55 -120 -55 -5 0 -10 11 -10 25 0 21 11 30 65 55 35 16 69 30 75 30 6 0
24 10 39 21 16 12 34 18 40 15 15 -10 14 19 -2 32 -15 13 -205 -59 -224 -84
-10 -14 -15 -15 -28 -4 -13 11 -18 10 -31 -9 -9 -12 -139 -83 -305 -166 -263
-132 -290 -143 -299 -126 -7 14 -5 23 9 35 9 9 21 16 25 16 5 0 125 59 267
130 143 72 270 130 283 130 13 0 27 7 30 16 5 14 103 64 209 108 35 14 37 17
26 38 -6 13 -13 24 -14 26 -2 2 -36 -12 -77 -31 -99 -48 -155 -64 -170 -49 -6
6 -10 13 -7 15 8 6 244 107 250 107 4 0 14 -18 22 -39 9 -22 20 -42 25 -45 11
-7 82 25 82 38 0 17 -97 106 -116 106 -10 0 -84 -29 -164 -65 -80 -36 -134
-56 -120 -45 40 31 255 120 291 120 26 0 41 -10 85 -57 39 -43 55 -54 66 -47
7 6 45 23 83 39 39 15 74 31 78 35 4 4 -34 32 -86 63 -99 59 -143 100 -179
170 -51 96 -57 139 -37 256 23 134 84 219 239 334 95 71 100 75 94 90 -3 8
-29 27 -57 43 -50 28 -58 29 -177 29 -139 -1 -207 -16 -297 -67 -54 -30 -213
-172 -213 -190 0 -5 -22 -33 -49 -61 -27 -29 -84 -98 -127 -155 -86 -115 -176
-201 -262 -249 -144 -82 -251 -86 -607 -24 -206 37 -267 43 -430 48 -171 5
-202 4 -305 -17 -143 -28 -220 -56 -366 -131 -283 -147 -497 -431 -615 -816
-5 -18 -14 -33 -19 -33 -6 0 -10 -7 -10 -15 0 -8 -6 -15 -13 -15 -14 0 -58 28
-69 44 -5 7 -11 6 -18 -4 -6 -9 -10 -10 -10 -3 0 7 -16 29 -35 50 -52 57 -107
166 -99 198 3 14 2 25 -3 25 -11 0 -37 152 -38 217 0 24 -4 43 -8 43 -5 0 -5
5 -2 10 4 6 3 16 -2 23 -17 22 -45 132 -40 157 3 19 5 16 6 -11 1 -25 6 -36
16 -36 10 0 14 6 10 14 -3 8 -5 21 -5 28 0 8 -9 22 -19 32 -18 17 -47 100 -38
110 3 2 21 -3 41 -11 32 -13 36 -19 36 -52 0 -31 9 -45 58 -95 31 -32 64 -59
73 -59 27 0 48 -33 57 -93 5 -32 6 -56 1 -55 -11 4 -106 85 -148 125 -41 41
-46 41 -26 4 8 -16 44 -54 79 -83 38 -31 69 -65 74 -83 15 -44 21 -125 10
-125 -5 0 -6 -4 -3 -10 10 -16 -21 -12 -34 4 -7 8 -16 51 -20 96 -9 90 -20
111 -42 84 -10 -12 -14 -45 -14 -114 0 -95 1 -100 43 -181 42 -84 155 -223
174 -217 6 2 29 60 53 128 86 252 170 399 299 524 218 212 436 326 701 367 44
7 150 13 235 13 156 0 199 -5 583 -65 214 -33 278 -35 362 -14 123 32 190 80
259 184 70 104 70 103 -18 75 -107 -33 -183 -44 -328 -44 -273 0 -597 63 -773
150 -192 96 -364 307 -422 520 -26 92 -23 297 5 401 54 201 169 353 374 490
132 89 288 148 458 174 25 3 52 9 61 11 17 5 17 132 9 2906 0 15 -5 30 -11 33
-14 9 -436 8 -450 -1 -8 -4 -10 -459 -7 -1498 l3 -1491 -67 -7 c-37 -3 -83
-11 -102 -18 -18 -6 -38 -10 -42 -9 -14 4 -66 -12 -110 -32 -22 -10 -45 -19
-51 -19 -6 0 -13 -3 -15 -7 -1 -5 -30 -21 -63 -38 -33 -16 -73 -41 -90 -55
-16 -14 -48 -37 -70 -51 -43 -28 -119 -101 -175 -168 -19 -23 -41 -48 -47 -56
-7 -7 -13 -18 -13 -24 0 -6 -4 -11 -9 -11 -5 0 -16 -15 -25 -32 -10 -18 -33
-59 -52 -92 -19 -32 -34 -64 -34 -71 0 -8 -8 -21 -17 -31 -10 -10 -17 -19 -15
-21 11 -15 -2 -38 -22 -39 -23 -2 -21 3 41 135 35 75 90 170 120 211 98 131
263 277 406 359 82 47 253 111 316 119 l56 7 4 760 c2 418 4 850 5 960 1 199
1 200 -26 256 -23 45 -37 61 -79 83 -56 31 -68 29 -46 -6 20 -31 56 -148 72
-231 16 -86 9 -305 -12 -325 -22 -23 -33 -3 -33 61 l-1 62 -16 -30 c-9 -16
-31 -50 -49 -76 -18 -26 -73 -129 -123 -230 -49 -101 -99 -200 -110 -219 -11
-19 -48 -93 -81 -165 -34 -71 -68 -142 -76 -157 -8 -16 -12 -28 -7 -28 4 0 0
-5 -10 -11 -9 -6 -15 -14 -12 -20 3 -5 -1 -23 -9 -41 -8 -18 -39 -95 -69 -171
-29 -75 -57 -134 -62 -130 -4 5 -5 1 -3 -7 3 -8 -5 -45 -18 -81 -13 -37 -24
-74 -24 -83 0 -23 -39 -115 -62 -145 -10 -13 -23 -41 -28 -63 -6 -21 -22 -51
-35 -66 -14 -15 -34 -38 -45 -52 l-20 -25 6 30 c4 17 24 75 46 130 22 55 60
162 85 238 41 127 140 386 191 497 11 25 49 108 84 185 35 77 94 198 132 268
37 71 66 130 64 133 -11 10 -174 54 -216 58 -49 4 -62 17 -41 42 21 25 95 13
157 -25 29 -18 59 -31 66 -28 28 11 115 133 157 217 22 47 49 117 59 155 14
53 19 62 19 37 1 -38 -30 -134 -65 -203 -33 -65 -30 -82 7 -39 55 63 102 159
102 205 0 45 -19 105 -34 105 -5 0 -9 8 -9 18 0 10 -29 113 -65 228 -36 115
-64 215 -63 222 2 7 28 -21 58 -63 51 -71 61 -80 136 -116 45 -21 85 -39 88
-39 4 0 5 218 4 485 l-3 485 323 0 322 0 0 -407z m6091 387 c-2 -8 -7 -186
-11 -395 -3 -209 -8 -330 -9 -270 -2 61 -3 165 -2 232 0 66 -4 134 -9 150 l-9
28 -7 -25 -8 -25 -6 30 c-4 25 -10 30 -38 31 -20 1 -36 -5 -42 -15 -7 -12 -9
-7 -10 20 0 45 17 67 56 75 24 5 37 1 52 -14 l21 -21 -6 52 c-3 29 -8 54 -10
57 -8 9 -447 11 -460 2 -19 -12 -21 -40 -24 -302 -1 -141 -5 -224 -9 -195 -4
28 -8 43 -9 35 -1 -13 -2 -13 -11 0 -8 12 -10 9 -10 -12 0 -16 -4 -28 -10 -28
-5 0 -11 -8 -11 -17 -1 -10 -6 4 -11 32 -6 34 -6 51 1 53 6 2 9 8 6 13 -3 4
-7 126 -8 269 l-2 260 300 -2 c261 -3 300 -5 296 -18z m-305 -171 c18 -20 19
-43 22 -318 2 -163 1 -294 -2 -290 -3 3 -6 48 -7 100 -2 88 -3 92 -14 59 -13
-35 -13 -35 -10 20 1 30 1 44 -1 30 -9 -56 -15 -70 -27 -67 -7 1 -14 -12 -16
-33 -4 -33 -4 -33 -11 -10 -6 20 -9 13 -11 -30 -2 -30 -6 67 -9 215 -3 149 -1
281 3 295 8 26 33 50 52 50 7 0 20 -9 31 -21z m-6140 -10 c17 -19 19 -42 22
-251 4 -234 -1 -315 -19 -287 -6 10 -9 10 -9 1 0 -9 -6 -8 -24 3 -14 9 -33 15
-43 13 -17 -3 -18 11 -23 227 -3 127 -1 241 3 255 19 59 60 76 93 39z m6114
-495 c0 -8 -5 -12 -10 -9 -6 4 -8 11 -5 16 9 14 15 11 15 -7z m-6184 -81 c-10
-10 -19 5 -10 18 6 11 8 11 12 0 2 -7 1 -15 -2 -18z m34 -4 c0 -5 -4 -9 -10
-9 -5 0 -10 7 -10 16 0 8 5 12 10 9 6 -3 10 -10 10 -16z m47 -1 c-3 -8 -6 -5
-6 6 -1 11 2 17 5 13 3 -3 4 -12 1 -19z m3340 -20 c53 -52 86 -128 81 -188 -6
-64 -29 -97 -71 -105 -71 -14 -179 39 -216 105 -82 145 89 301 206 188z m2473
-18 c0 -5 -2 -10 -4 -10 -3 0 -8 5 -11 10 -3 6 -1 10 4 10 6 0 11 -4 11 -10z
m37 -62 c-3 -8 -6 -5 -6 6 -1 11 2 17 5 13 3 -3 4 -12 1 -19z m530 -140 c-2
-13 -4 -5 -4 17 -1 22 1 32 4 23 2 -10 2 -28 0 -40z m-4547 -468 c164 -22 311
-93 430 -210 148 -146 214 -348 160 -492 -51 -138 -165 -199 -276 -149 -109
50 -122 183 -24 249 31 21 42 23 103 17 l67 -6 0 26 c0 122 -161 351 -285 406
-224 99 -520 73 -665 -58 -119 -106 -167 -244 -137 -389 49 -232 275 -462 852
-865 286 -200 581 -463 707 -631 47 -63 103 -179 125 -261 21 -75 22 -229 4
-307 -18 -76 -68 -194 -109 -260 -44 -70 -162 -184 -252 -245 -94 -62 -204
-116 -245 -120 -19 -2 -39 -6 -44 -9 -34 -21 -311 6 -311 30 0 8 -6 11 -15 8
-8 -4 -15 -1 -15 6 0 10 -3 10 -15 0 -9 -7 -18 -11 -21 -8 -8 9 47 68 89 95
33 21 43 23 70 14 172 -60 350 -17 485 118 122 121 168 244 159 421 -6 122
-24 197 -71 295 -79 167 -257 339 -686 660 -429 322 -723 586 -823 738 -160
242 -148 497 34 691 181 194 420 273 709 236z m-2275 -117 c-9 -26 -22 -55
-29 -63 -7 -8 -46 -82 -87 -165 -41 -82 -77 -151 -81 -153 -5 -2 -8 -8 -8 -13
0 -16 -52 -124 -74 -154 -13 -16 -31 -53 -41 -82 -10 -29 -22 -50 -26 -48 -8
5 -22 -33 -20 -52 1 -7 -3 -13 -9 -13 -6 0 -8 -5 -4 -11 3 -6 1 -21 -5 -32
-12 -26 -34 -79 -35 -89 -1 -3 -4 -10 -8 -14 -5 -4 -8 -17 -8 -29 0 -12 -11
-35 -25 -51 -14 -16 -25 -39 -25 -51 0 -13 -4 -23 -10 -23 -5 0 -9 -8 -8 -17
3 -41 -3 -74 -12 -68 -5 3 -9 -2 -8 -12 0 -10 0 -31 -1 -48 -1 -22 -4 -26 -10
-16 -6 10 -9 4 -8 -20 0 -19 -10 -68 -22 -109 -12 -41 -27 -91 -33 -112 -6
-20 -8 -49 -4 -65 4 -18 3 -23 -3 -14 -10 15 -31 7 -31 -12 0 -7 4 -6 10 3 10
16 11 15 17 -45 11 -108 6 -165 -19 -203 -24 -36 -43 -47 -171 -101 -28 -12
-46 -25 -42 -31 4 -6 1 -9 -5 -8 -7 2 -20 -9 -29 -23 -9 -15 -28 -42 -43 -60
-44 -55 -86 -150 -118 -265 -46 -166 -79 -271 -79 -253 -1 8 10 73 24 143 31
158 31 162 0 105 -30 -58 -82 -230 -99 -335 -8 -43 -14 -66 -15 -51 -2 47 38
225 75 337 55 164 93 235 176 325 49 53 80 97 93 130 26 70 40 91 109 163 51
52 66 62 94 62 l35 0 -7 42 c-4 23 -11 47 -16 53 -13 16 0 57 16 51 10 -4 14
5 14 34 0 22 5 40 10 40 6 0 10 7 10 15 0 18 -16 20 -23 3 -3 -7 -6 -3 -6 10
-1 19 8 26 31 23 3 0 5 24 4 54 -1 29 0 52 3 50 3 -1 6 10 7 25 1 40 24 91 37
83 6 -3 7 -1 3 6 -7 10 25 116 55 186 4 11 25 65 45 120 20 55 49 127 64 160
15 33 38 85 51 115 91 207 323 639 336 626 3 -2 -3 -26 -12 -53z m-400 -208
c-4 -31 -38 -118 -91 -231 -46 -100 -84 -185 -84 -188 0 -4 -20 -48 -44 -99
-24 -51 -63 -144 -86 -207 -40 -108 -51 -137 -86 -218 -8 -18 -14 -39 -14 -47
0 -7 -5 -17 -12 -21 -20 -13 -2 65 47 201 57 157 118 298 219 508 127 263 143
311 120 366 l-15 35 27 -24 c23 -23 25 -30 19 -75z m6922 -172 c-3 -10 -5 -2
-5 17 0 19 2 27 5 18 2 -10 2 -26 0 -35z m152 -115 c-1 -109 -4 -131 -9 -93
-8 45 -2 235 6 235 2 0 3 -64 3 -142z m-2340 -1056 c-1 -636 -5 -1138 -8
-1115 -11 65 -18 60 -14 -10 3 -48 1 -58 -7 -45 -12 20 -7 2308 5 2328 3 6 10
8 15 5 6 -4 9 -481 9 -1163z m2338 806 c-2 -18 -4 -4 -4 32 0 36 2 50 4 33 2
-18 2 -48 0 -65z m-7 -709 l-9 -54 4 55 c3 30 6 174 7 320 l3 265 2 -266 c2
-146 -1 -290 -7 -320z m-7641 316 c131 -74 155 -95 147 -123 -4 -12 -13 -22
-19 -22 -19 0 -39 -37 -24 -44 9 -3 8 -7 -3 -15 -8 -6 -10 -11 -4 -11 7 0 14
-10 17 -22 2 -13 8 -32 12 -43 6 -17 5 -18 -5 -5 -10 13 -11 12 -5 -5 17 -47
26 -113 21 -155 -3 -25 -8 -74 -12 -110 -3 -35 -12 -80 -20 -98 -8 -19 -14
-44 -14 -56 -1 -17 -2 -18 -9 -6 -5 8 -11 123 -14 255 -4 207 -7 247 -24 295
-58 159 -162 239 -234 181 l-23 -18 35 -18 c59 -30 98 -64 134 -118 19 -28 35
-56 35 -61 0 -15 -30 16 -51 54 -24 43 -123 112 -153 108 -22 -3 -51 -52 -41
-68 3 -6 33 -10 66 -10 38 0 58 -4 54 -10 -3 -5 -31 -10 -61 -10 -49 0 -56 3
-66 25 -16 36 16 112 61 142 54 36 92 30 200 -32z m762 -24 c18 -19 29 -40 29
-58 0 -22 -2 -25 -10 -13 -8 13 -10 12 -10 -4 0 -11 -3 -17 -6 -14 -3 3 -26 1
-52 -6 -26 -6 -63 -11 -82 -11 -34 0 -35 1 -34 39 1 31 9 46 33 68 43 39 92
38 132 -1z m-784 -333 c-7 -104 -80 -378 -116 -438 -23 -39 -24 -42 -53 -120
-11 -30 -29 -76 -39 -102 -10 -26 -19 -56 -19 -67 0 -11 -4 -23 -10 -26 -5 -3
-10 -20 -10 -36 0 -17 -4 -28 -8 -25 -9 5 -47 -114 -63 -198 -17 -89 -39 -279
-39 -341 0 -57 2 -61 47 -107 26 -26 43 -48 37 -48 -5 0 -16 6 -23 13 -7 6 -1
-12 14 -41 18 -37 31 -52 41 -48 20 8 17 -11 -6 -34 -19 -19 -19 -19 -26 17
-6 31 -8 33 -17 17 -7 -13 -7 -19 1 -22 8 -2 12 -32 12 -83 0 -45 4 -78 9 -75
5 3 11 -1 14 -9 4 -9 1 -12 -8 -9 -18 7 -24 -18 -21 -93 2 -35 -1 -63 -6 -63
-9 0 -12 39 -13 210 0 119 -18 230 -37 230 -4 0 -8 -7 -8 -15 0 -8 -9 -24 -20
-35 -15 -15 -20 -35 -22 -82 l-1 -63 -7 60 c-7 67 -17 95 -32 95 -6 0 -6 -6 2
-14 7 -9 13 -57 15 -118 2 -74 1 -92 -5 -63 -5 22 -9 58 -9 81 -1 22 -10 74
-20 114 -11 41 -18 76 -16 78 2 3 12 -3 21 -12 9 -9 24 -16 33 -14 13 3 17 22
23 98 24 332 74 537 214 888 99 248 144 390 157 500 6 50 13 92 16 92 2 0 1
-42 -2 -92z m7670 -40 c-3 -8 -6 -5 -6 6 -1 11 2 17 5 13 3 -3 4 -12 1 -19z
m-150 -25 c-3 -10 -5 -4 -5 12 0 17 2 24 5 18 2 -7 2 -21 0 -30z m2116 -263
c35 -39 34 -56 -5 -80 -38 -23 -77 -26 -102 -7 -16 12 -18 22 -11 72 l7 57 41
-5 c30 -4 50 -15 70 -37z m-9528 -60 c4 -6 -25 -45 -64 -86 -39 -42 -71 -80
-71 -85 0 -11 -69 -103 -81 -107 -5 -2 -9 -9 -9 -15 0 -7 -9 -18 -20 -25 -43
-27 -19 15 109 193 28 39 59 85 68 103 17 32 54 44 68 22z m9194 -49 c42 -40
43 -84 1 -106 -37 -19 -60 -19 -88 1 -29 20 -29 72 -1 108 26 34 49 33 88 -3z
m-1499 -15 c0 -2 -7 -7 -16 -10 -8 -3 -12 -2 -9 4 6 10 25 14 25 6z m-7643
-123 c-2 -16 -4 -5 -4 22 0 28 2 40 4 28 2 -13 2 -35 0 -50z m7439 27 c-44
-22 -85 -40 -90 -39 -13 1 144 78 159 78 6 0 -26 -18 -69 -39z m-7485 -33
c-16 -16 -20 -5 -8 23 9 22 11 23 14 6 3 -10 0 -23 -6 -29z m8778 -32 c30 -39
37 -86 15 -102 -43 -31 -92 1 -110 72 -13 53 58 76 95 30z m-8803 -15 c-1 -16
-4 -30 -8 -30 -10 0 -10 22 -2 44 9 23 11 20 10 -14z m7144 -15 c-14 -7 -27
-11 -30 -9 -6 7 22 24 40 23 9 0 5 -6 -10 -14z m-7173 -37 c-3 -7 -5 -2 -5 12
0 14 2 19 5 13 2 -7 2 -19 0 -25z m8663 -49 c16 -37 0 -59 -41 -59 -53 0 -86
95 -44 126 17 12 22 11 46 -12 15 -15 33 -39 39 -55z m-8084 52 c36 -22 75
-109 73 -164 -1 -19 -3 -24 -6 -12 -14 68 -14 69 -23 55 -4 -7 -6 -20 -2 -28
4 -11 2 -13 -8 -7 -10 6 -12 4 -7 -8 5 -12 1 -17 -12 -17 -10 0 -29 -8 -42
-19 -26 -20 -29 -21 -58 -21 -12 0 -20 -7 -21 -17 -5 -99 -13 -126 -50 -162
-21 -20 -62 -49 -91 -65 -116 -61 -116 -75 -2 -164 47 -37 100 -80 117 -95
l31 -28 -45 27 c-93 56 -137 89 -197 151 -35 35 -63 69 -63 76 0 8 3 7 9 -2 8
-12 17 -8 48 20 22 19 62 52 90 74 75 59 84 79 83 183 -3 180 -2 181 29 213
36 36 98 40 147 10z m-569 -53 c-2 -18 0 -41 5 -52 7 -13 5 -32 -8 -65 -10
-25 -17 -50 -16 -55 5 -15 -9 -46 -19 -41 -14 9 -11 72 5 78 18 7 26 57 13 79
-9 13 -8 21 1 30 6 6 12 22 12 35 0 13 3 23 6 23 4 0 4 -15 1 -32z m7983 22
c0 -5 -4 -10 -10 -10 -5 0 -10 5 -10 10 0 6 5 10 10 10 6 0 10 -4 10 -10z
m-996 -20 c-5 -5 -52 -28 -104 -51 -52 -22 -110 -47 -127 -55 -18 -8 -33 -11
-33 -7 0 5 46 28 102 53 56 25 115 52 132 60 32 17 46 16 30 0z m12 -69 c-6
-10 -66 -33 -66 -26 0 3 15 11 33 19 40 18 39 18 33 7z m-7069 -153 c-3 -8 -6
-5 -6 6 -1 11 2 17 5 13 3 -3 4 -12 1 -19z m3 -165 c-22 -73 -31 -108 -39
-158 -14 -78 -60 -197 -73 -189 -4 3 -8 -1 -9 -8 -3 -61 -29 -103 -29 -47 0
59 37 184 79 266 46 90 70 167 73 232 l2 46 3 -52 c2 -29 -1 -70 -7 -90z
m6460 18 c0 -5 -19 -16 -42 -25 -126 -46 -178 -63 -178 -57 0 4 28 17 63 30
34 12 78 31 97 41 39 21 60 25 60 11z m-320 -39 c0 -9 -120 -66 -126 -59 -2 2
24 18 58 35 73 36 68 34 68 24z m320 -51 c0 -5 -30 -19 -67 -32 -102 -33 -104
-33 -28 5 73 36 95 42 95 27z m2126 -10 c-21 -34 -165 -67 -181 -41 -4 6 13
10 42 11 26 0 66 9 88 19 45 21 59 24 51 11z m-2606 -16 c-14 -8 -29 -14 -35
-14 -5 0 1 6 15 14 14 8 30 14 35 14 6 0 -1 -6 -15 -14z m165 -5 c-3 -5 -12
-10 -18 -10 -7 0 -6 4 3 10 19 12 23 12 15 0z m-6358 -47 c-3 -10 -5 -4 -5 12
0 17 2 24 5 18 2 -7 2 -21 0 -30z m3438 26 c5 -7 -5 -8 -32 -3 -51 9 -54 14
-10 14 20 0 39 -5 42 -11z m2985 -44 c0 -6 -57 -30 -91 -39 -13 -3 -1 5 26 18
52 25 65 29 65 21z m-6012 -51 c-21 -19 -38 -37 -38 -38 0 -2 17 0 38 4 46 8
246 -44 325 -85 54 -28 61 -30 52 -15 -16 25 17 6 39 -23 50 -65 71 -150 45
-187 -7 -11 -8 -4 -3 24 5 30 4 37 -6 31 -8 -5 -11 -4 -7 2 15 24 -15 71 -59
94 -24 13 -44 27 -44 31 0 5 -7 8 -15 8 -8 0 -15 5 -15 12 0 6 -3 8 -7 5 -3
-4 -14 -1 -22 7 -9 8 -59 29 -111 47 -119 40 -195 44 -239 11 -54 -40 -47 -23
19 43 35 36 69 65 75 65 5 0 -7 -16 -27 -36z m-428 -199 c-8 -35 -9 -32 -5 30
3 39 6 99 7 135 2 50 3 43 5 -30 2 -52 -1 -113 -7 -135z m8778 206 c12 -7 -13
-9 -83 -8 -130 3 -158 -6 -265 -80 -22 -15 -21 -13 5 16 29 32 84 65 135 82
32 11 184 3 208 -10z m-2918 -49 c0 -8 -147 -63 -165 -62 -10 1 142 67 158 69
4 1 7 -2 7 -7z m238 -14 c-3 -25 -48 -41 -80 -29 -18 7 -16 10 23 29 56 27 61
27 57 0z m3243 -56 c-6 -11 -9 -27 -6 -35 4 -8 0 -14 -10 -14 -8 0 -15 2 -15
3 0 10 34 73 38 70 2 -2 -1 -13 -7 -24z m-3451 9 c0 -10 -158 -66 -166 -59 -2
3 22 15 54 27 31 12 66 26 77 31 27 12 35 12 35 1z m271 -15 c-17 -20 -103
-48 -114 -37 -5 5 13 17 45 29 66 26 85 28 69 8z m3323 -2 c3 -9 6 -23 6 -32
0 -14 -2 -14 -9 -3 -6 10 -11 1 -16 -28 -4 -22 -11 -39 -16 -35 -5 3 -9 -2 -9
-11 0 -9 -4 -13 -10 -10 -5 3 -10 -1 -10 -9 0 -9 3 -16 8 -16 4 0 5 -25 4 -56
-2 -30 -7 -52 -10 -49 -7 6 -8 22 -15 115 -1 19 -6 38 -12 43 -6 4 -4 11 5 18
12 8 9 9 -10 3 -14 -3 -30 -11 -37 -16 -7 -5 -14 -5 -17 1 -4 6 6 18 21 28 15
9 43 30 61 45 37 32 57 35 66 12z m-8984 -4 c54 -1 68 -4 50 -10 -14 -4 -38
-8 -54 -9 -16 -1 -38 -9 -49 -18 -11 -10 -17 -12 -12 -4 6 10 2 11 -16 5 -13
-5 -42 -8 -63 -6 -44 2 -134 -21 -162 -43 -10 -8 -25 -15 -32 -15 -17 0 -42
-25 -43 -42 0 -10 -2 -10 -6 1 -4 10 -7 10 -13 1 -4 -7 -10 -8 -13 -3 -11 17
49 87 97 112 45 23 140 38 216 35 14 -1 59 -2 100 -4z m8492 -6 c21 -3 51 -19
70 -37 19 -18 27 -26 18 -20 -25 19 -72 26 -100 14 -23 -9 -22 -10 15 -11 31
0 37 -3 25 -11 -12 -9 -11 -10 6 -6 21 4 22 -1 15 -46 0 -5 -13 -1 -28 7 -16
8 -61 22 -102 31 -82 18 -151 49 -151 69 0 9 25 13 98 15 53 1 114 -1 134 -5z
m-3052 -64 c0 -5 -9 -10 -21 -10 -11 0 -40 -9 -65 -20 -60 -28 -94 -40 -94
-35 0 2 24 15 53 29 106 49 127 55 127 36z m-2862 -20 c89 -55 60 -183 -45
-197 -35 -5 -42 -2 -71 31 -18 20 -32 47 -32 59 0 38 33 89 70 109 42 22 38
22 78 -2z m6252 -38 c0 -15 -2 -15 -10 -2 -13 20 -13 33 0 25 6 -3 10 -14 10
-23z m-3385 -12 c-3 -5 -11 -10 -16 -10 -6 0 -7 5 -4 10 3 6 11 10 16 10 6 0
7 -4 4 -10z m3359 -28 c-7 -2 -14 -18 -16 -35 -3 -24 -6 -28 -12 -16 -4 10 0
33 9 55 15 34 18 37 25 19 5 -13 3 -21 -6 -23z m-8612 10 c10 -4 -17 -8 -60
-8 -69 -1 -103 -7 -167 -29 -20 -6 -20 -6 0 6 51 32 180 50 227 31z m-518 -47
c-4 -8 -11 -12 -16 -9 -6 4 -5 10 3 15 19 12 19 11 13 -6z m5243 -6 c-21 -11
-43 -19 -49 -17 -13 5 51 38 72 37 8 0 -2 -9 -23 -20z m-5023 -21 c-133 -100
-245 -290 -280 -474 -11 -62 -24 -22 -14 46 17 124 138 321 250 407 30 23 59
42 64 43 5 0 -4 -10 -20 -22z m-284 -73 c-46 -91 -68 -119 -43 -54 10 24 23
50 30 57 7 7 13 19 13 25 0 14 30 60 36 55 2 -3 -14 -40 -36 -83z m5110 80 c0
-8 -89 -45 -107 -44 -16 1 -16 2 2 8 11 4 36 15 55 24 36 17 50 20 50 12z
m-5455 -91 c53 -75 65 -104 46 -104 -5 0 -19 12 -30 28 l-20 27 -1 -31 c0 -34
24 -66 32 -42 8 21 36 -8 44 -45 9 -45 59 -140 89 -173 14 -15 25 -38 25 -50
0 -28 2 -28 -43 -9 -54 22 -92 79 -122 181 -34 115 -85 298 -85 303 0 8 10 -5
65 -85z m8405 62 c0 -7 -12 -26 -28 -42 -15 -16 -49 -67 -75 -114 -26 -47 -75
-121 -107 -165 -33 -44 -60 -85 -60 -91 0 -6 -9 -19 -21 -30 -12 -10 -29 -35
-39 -54 -10 -19 -71 -114 -135 -210 -89 -133 -119 -186 -125 -220 -6 -40 -8
-42 -14 -19 -9 30 -4 111 6 107 11 -4 84 97 146 202 31 52 73 120 94 151 21
31 38 61 38 67 0 6 17 32 37 59 20 26 70 98 110 158 63 94 158 215 169 215 2
0 4 -6 4 -14z m1376 -3 c-3 -10 -10 -37 -16 -60 -6 -23 -16 -48 -23 -55 -14
-13 -17 -21 -17 -39 0 -5 -4 -8 -8 -5 -5 3 -16 -10 -25 -29 -9 -19 -12 -35 -7
-35 10 0 -5 -43 -23 -68 -18 -23 -19 -4 -2 30 l17 33 -31 -33 c-31 -33 -40
-49 -22 -37 5 3 12 1 15 -4 11 -18 -17 -24 -29 -7 -11 15 -13 14 -20 -6 -4
-13 -8 -35 -10 -51 -3 -27 -3 -27 37 13 22 22 46 40 52 40 6 0 28 11 48 25 47
32 49 31 46 -5 -1 -17 -7 -29 -13 -27 -8 3 -34 -39 -39 -63 -1 -3 -5 -11 -10
-19 -7 -11 -5 -13 7 -8 10 3 17 4 17 2 0 -11 -146 -202 -172 -225 -32 -29 -60
-100 -47 -121 13 -21 32 4 32 41 0 32 12 47 136 178 35 37 60 58 56 47 -4 -11
-8 -27 -9 -35 -1 -8 -5 -22 -9 -30 -5 -12 -29 -120 -41 -180 -1 -8 -6 -22 -10
-31 -4 -9 -6 -20 -5 -25 6 -19 -15 -83 -54 -164 -62 -131 -161 -230 -270 -269
-36 -12 -71 -19 -81 -15 -16 6 -17 4 -7 -14 14 -27 14 -32 -1 -27 -14 5 -41
-42 -32 -56 3 -5 1 -9 -5 -9 -6 0 -8 -7 -5 -15 4 -8 1 -15 -7 -15 -7 0 -9 -3
-6 -6 4 -4 -2 -19 -12 -33 -27 -39 -30 -54 -14 -73 13 -14 12 -18 -12 -30 -26
-12 -58 -60 -107 -158 -13 -25 -26 -46 -30 -48 -5 -2 -8 -9 -8 -16 0 -6 -13
-27 -28 -46 -16 -19 -45 -63 -66 -96 -21 -34 -45 -70 -55 -80 -9 -11 -34 -47
-55 -82 -21 -35 -60 -89 -87 -119 -27 -31 -47 -58 -45 -61 10 -9 -69 -79 -84
-74 -12 4 -13 2 -2 -9 17 -18 15 -32 -4 -25 -8 3 -12 2 -9 -4 3 -5 1 -18 -5
-27 -10 -16 -11 -16 -5 2 5 16 -1 13 -27 -12 -18 -17 -44 -33 -58 -36 -14 -2
28 -5 92 -6 80 -1 133 -6 165 -17 26 -10 82 -25 123 -35 88 -20 57 -24 -50 -6
-54 10 -147 12 -335 8 -339 -7 -470 -7 -525 1 -25 4 -70 9 -100 13 -123 15
-69 20 244 25 l328 5 88 92 c228 238 448 570 608 916 101 219 200 546 219 720
6 58 22 88 24 45 2 -71 19 -109 19 -44 0 21 4 45 9 54 9 17 26 187 24 245 0
16 3 23 7 17 10 -15 23 119 15 156 -5 29 -5 29 6 4 14 -32 4 -400 -14 -484
l-12 -59 -11 44 c-12 42 -12 43 -13 12 -1 -18 -5 -33 -10 -33 -5 0 -14 -28
-20 -62 -6 -34 -16 -65 -23 -69 -9 -6 -12 -33 -11 -88 1 -44 -2 -83 -7 -86 -5
-3 -6 11 -3 32 3 21 3 35 -1 32 -3 -3 -8 -36 -11 -74 -3 -37 -8 -72 -12 -77
-3 -6 1 -14 8 -19 11 -7 9 -9 -6 -9 -18 0 -18 -1 -3 -16 15 -15 20 -15 64 6
136 66 251 260 288 483 l13 78 -27 -33 c-16 -18 -42 -70 -59 -114 -36 -94 -54
-115 -78 -92 -28 29 -28 99 2 203 l27 97 94 95 c52 53 94 101 94 106 0 12 -26
-9 -112 -92 -38 -36 -68 -59 -68 -51 0 7 10 24 22 37 12 13 19 23 15 23 -3 0
-14 -9 -24 -19 -12 -13 -23 -17 -32 -12 -10 7 2 39 57 144 38 74 87 157 108
184 22 27 52 70 68 96 30 47 52 62 42 30z m-9569 -25 c-3 -8 -6 -5 -6 6 -1 11
2 17 5 13 3 -3 4 -12 1 -19z m8320 -18 c67 -36 173 -76 173 -64 0 3 11 -6 25
-20 14 -14 58 -44 98 -67 114 -65 209 -143 276 -223 61 -75 147 -233 139 -258
-3 -7 -10 4 -17 24 -51 153 -190 311 -348 395 -45 23 -79 42 -240 130 -38 20
-90 49 -116 65 -26 15 -51 28 -56 28 -4 0 -16 7 -27 15 -19 14 -19 14 1 15 11
0 53 -18 92 -40z m-2854 4 c12 -12 -12 -42 -39 -48 -37 -10 -41 0 -14 29 23
25 41 31 53 19z m3720 -21 c18 -35 29 -103 17 -103 -5 0 -12 17 -15 38 -4 20
-10 47 -16 60 -17 42 -6 46 14 5z m104 5 c-3 -8 -6 -5 -6 6 -1 11 2 17 5 13 3
-3 4 -12 1 -19z m-4272 -18 c-22 -10 -44 -18 -50 -18 -5 0 8 8 30 19 22 10 45
18 50 18 6 0 -8 -9 -30 -19z m-5106 -100 c7 -49 16 -90 20 -90 12 0 41 -69 41
-98 l0 -27 -20 25 c-35 43 -90 170 -90 207 0 36 15 73 29 73 4 0 14 -40 20
-90z m774 50 c47 -52 26 -122 -37 -122 -45 0 -104 34 -110 65 -18 87 83 126
147 57z m8297 5 l25 -30 -27 24 c-16 14 -28 29 -28 34 0 6 1 8 3 6 1 -2 13
-17 27 -34z m-3915 15 c-3 -5 -11 -10 -16 -10 -6 0 -7 5 -4 10 3 6 11 10 16
10 6 0 7 -4 4 -10z m421 -15 c-11 -8 -27 -15 -35 -15 -10 1 -7 6 9 15 33 19
50 18 26 0z m-172 -6 c-6 -10 -65 -39 -79 -39 -11 0 20 25 45 37 32 15 43 16
34 2z m-607 -45 c-16 -8 -36 -13 -45 -11 -14 3 -12 6 8 15 14 6 34 11 45 11
16 0 15 -3 -8 -15z m4575 -84 c2 -47 1 -96 -3 -110 -4 -14 -7 25 -8 89 -1 133
5 144 11 21z m-6372 19 c-50 -44 -80 -64 -80 -52 0 4 23 24 50 43 27 19 50 38
50 43 0 4 6 7 13 7 6 0 -8 -19 -33 -41z m6146 -1 c8 -16 14 -32 12 -34 -3 -2
-14 14 -26 37 -12 22 -17 37 -12 34 6 -4 17 -20 26 -37z m-8979 -10 c-3 -8 -6
-5 -6 6 -1 11 2 17 5 13 3 -3 4 -12 1 -19z m1483 12 c0 -5 -4 -10 -10 -10 -5
0 -10 5 -10 10 0 6 5 10 10 10 6 0 10 -4 10 -10z m-1512 -80 c-3 -43 -2 -67 4
-64 6 4 6 -1 0 -13 -6 -10 -9 -55 -8 -98 2 -44 4 -111 5 -148 0 -38 5 -66 10
-63 4 3 6 -7 4 -22 -3 -24 -2 -25 7 -7 9 17 10 16 5 -8 -3 -15 -1 -47 5 -70
22 -82 22 -83 11 -67 -14 23 -52 174 -65 265 -10 63 -10 109 0 220 7 77 13
141 14 143 0 1 3 2 6 2 4 0 4 -31 2 -70z m1696 50 c-10 -4 -21 -6 -24 -3 -8 7
24 22 34 16 5 -4 1 -10 -10 -13z m-1660 -97 c-4 -54 -11 -105 -16 -113 -6 -10
-7 0 -4 30 3 25 8 75 12 113 10 101 15 80 8 -30z m1916 67 c0 -5 -5 -10 -11
-10 -5 0 -7 5 -4 10 3 6 8 10 11 10 2 0 4 -4 4 -10z m6369 -1 c44 -15 76 -81
43 -85 -4 0 -36 -5 -72 -9 -36 -5 -72 -9 -80 -9 -8 0 -18 -5 -22 -11 -4 -5 -8
6 -8 25 0 37 21 70 55 88 26 15 44 15 84 1z m-5559 -13 c0 -2 -7 -7 -16 -10
-8 -3 -12 -2 -9 4 6 10 25 14 25 6z m4790 -236 c0 -134 -4 -240 -9 -240 -5 0
-8 44 -6 98 1 53 3 161 4 240 0 78 3 142 6 142 3 0 5 -108 5 -240z m1800 216
c0 -2 -7 -9 -15 -16 -13 -11 -14 -10 -9 4 5 14 24 23 24 12z m-8112 -13 c-10
-2 -28 -2 -40 0 -13 2 -5 4 17 4 22 1 32 -1 23 -4z m115 0 c-13 -2 -33 -2 -45
0 -13 2 -3 4 22 4 25 0 35 -2 23 -4z m3561 -2 c3 -5 -3 -11 -14 -14 -22 -6
-37 8 -18 16 20 8 26 8 32 -2z m-3259 -23 c10 -11 -47 -6 -150 12 -39 6 -29 7
45 3 52 -2 100 -9 105 -15z m48 -5 c-7 -2 -19 -2 -25 0 -7 3 -2 5 12 5 14 0
19 -2 13 -5z m2882 -3 c-3 -5 -13 -10 -21 -10 -8 0 -12 5 -9 10 3 6 13 10 21
10 8 0 12 -4 9 -10z m-2738 -6 c-3 -3 -12 -4 -19 -1 -8 3 -5 6 6 6 11 1 17 -2
13 -5z m7246 -91 c4 -19 2 -33 -3 -33 -6 0 -10 13 -10 29 0 16 -3 38 -6 48 -4
14 -4 15 4 3 5 -8 12 -30 15 -47z m-6915 -55 c8 -10 -21 -12 -141 -10 -109 3
-182 -1 -257 -13 -72 -12 -205 -20 -420 -25 -346 -8 -371 -12 -508 -75 -91
-43 -134 -74 -173 -128 -35 -48 -37 -80 -7 -101 33 -24 62 -20 151 20 108 49
269 81 507 99 201 16 345 36 440 60 30 8 109 16 175 19 132 6 219 26 235 56 5
10 10 31 11 47 0 26 1 27 9 6 6 -14 5 -34 -2 -53 -18 -53 -94 -79 -268 -90
-142 -9 -493 -66 -537 -87 -26 -13 -35 -13 -48 -3 -11 9 -37 10 -97 5 -171
-15 -341 -54 -455 -106 -64 -28 -99 -25 -134 13 -35 39 -37 68 -5 122 36 62
125 120 262 172 101 38 174 46 444 50 149 2 288 10 335 18 108 18 469 21 483
4z m2003 -88 c16 -41 37 -89 46 -107 9 -18 14 -35 10 -39 -9 -9 -5 -14 -45 69
-29 60 -62 141 -62 154 0 3 5 3 11 1 7 -2 25 -37 40 -78z m-4101 2 c0 -15 9
-69 20 -121 11 -52 20 -107 20 -123 0 -27 -1 -28 -16 -13 -9 9 -14 25 -11 35
3 11 1 18 -4 14 -5 -3 -9 2 -9 10 0 9 -6 16 -12 17 -7 0 -8 2 -3 5 11 5 11 71
0 158 -6 44 -5 57 3 52 7 -4 12 -19 12 -34z m3961 -30 c7 -20 27 -65 46 -100
38 -73 38 -72 19 -72 -7 0 -31 44 -55 103 -23 56 -45 109 -49 117 -5 13 -3 13
11 2 9 -8 21 -30 28 -50z m-61 29 c0 -11 -9 -21 -22 -24 -30 -8 -33 -3 -11 22
22 26 33 27 33 2z m-970 -36 c0 -5 -5 -3 -10 5 -5 8 -10 20 -10 25 0 6 5 3 10
-5 5 -8 10 -19 10 -25z m-2546 -67 c-26 -34 -45 -58 -43 -51 6 18 83 123 87
118 2 -2 -18 -32 -44 -67z m7587 50 c7 -218 6 -329 -3 -317 -7 10 -8 8 -5 -11
3 -14 2 -34 -3 -45 -6 -15 -10 -7 -16 35 l-8 55 -7 -40 -6 -40 -2 43 c0 23 4
42 9 42 6 0 10 57 10 150 0 127 2 150 15 150 9 0 15 -9 16 -22z m949 -82 c0
-39 -6 -31 -14 19 -5 29 -4 36 3 25 6 -8 11 -28 11 -44z m-5980 -47 c7 -11 10
-22 8 -24 -20 -17 -592 -286 -602 -282 -20 8 -26 53 -7 53 9 1 25 5 35 9 14 6
17 5 12 -4 -10 -16 154 68 177 91 10 10 27 18 37 18 11 0 20 5 20 10 0 6 12
16 28 22 15 7 34 18 42 25 29 23 195 102 217 102 13 1 27 -8 33 -20z m-2635
-67 c-18 -42 -36 -92 -40 -110 -4 -19 -9 -31 -12 -29 -7 8 15 82 47 152 41 91
45 81 5 -13z m3020 -39 c25 -54 59 -125 75 -157 16 -33 27 -63 24 -67 -7 -11
-195 -109 -209 -109 -7 0 -16 16 -19 35 -4 21 -13 35 -21 35 -8 0 -15 9 -15
20 0 11 -4 20 -10 20 -5 0 -15 18 -21 41 -7 23 -19 43 -26 46 -7 3 -13 16 -13
30 0 18 9 28 35 39 19 8 35 16 35 18 0 6 -55 -10 -70 -19 -16 -10 -40 14 -40
41 0 21 9 27 37 23 3 0 10 6 15 15 5 9 19 16 31 16 21 1 70 29 51 31 -9 0 73
36 88 38 4 1 28 -43 53 -96z m80 73 c-17 -12 -17 -15 -1 -46 23 -47 14 -48
-18 -2 -34 49 -33 59 5 60 28 1 29 -1 14 -12z m-1158 -36 c4 -12 3 -13 -5 -1
-6 8 -18 11 -28 8 -21 -6 -241 -108 -262 -121 -17 -10 -8 -64 19 -119 11 -21
18 -44 16 -50 -7 -18 -46 75 -53 127 -6 44 -6 46 32 68 21 13 79 42 129 65 92
43 145 51 152 23z m715 -7 c33 -30 22 -51 -44 -85 -35 -18 -76 -37 -93 -44
-16 -6 -112 -50 -212 -98 -229 -108 -229 -107 -236 -64 -3 18 -1 37 4 43 6 5
9 3 9 -7 0 -28 25 -27 70 3 24 16 49 29 55 29 7 0 18 7 25 15 7 8 16 12 21 10
4 -3 12 3 18 12 6 10 11 15 11 11 0 -5 9 1 20 12 12 12 26 17 36 13 11 -4 15
-3 10 5 -4 7 8 15 34 22 22 6 40 17 40 25 0 8 13 15 33 17 22 2 31 8 30 18 -2
9 21 26 60 46 75 37 85 39 109 17z m5347 -40 c103 -50 194 -158 226 -268 16
-58 20 -125 6 -125 -4 0 -6 -10 -4 -23 3 -13 -1 -48 -7 -78 -6 -30 -14 -67
-16 -84 -6 -31 -53 -153 -66 -170 -5 -5 -21 -27 -37 -47 -61 -80 -214 -188
-314 -222 -68 -23 -167 -29 -167 -10 0 8 -7 14 -16 14 -8 0 -12 -4 -9 -10 9
-15 -11 -12 -24 4 -9 11 -9 15 1 20 7 3 3 3 -9 0 -16 -3 -23 1 -28 16 -3 11
-10 20 -14 20 -11 0 -31 47 -31 73 0 18 3 16 17 -11 16 -33 76 -82 100 -82 7
0 13 7 13 16 0 8 5 12 10 9 6 -4 8 -11 5 -16 -4 -5 1 -9 9 -9 12 0 16 15 19
68 l3 67 2 -77 c2 -90 3 -90 95 -59 132 46 286 169 349 281 77 134 96 316 49
459 -21 63 -34 84 -85 136 -65 66 -125 95 -198 95 -42 0 -103 -27 -131 -58
-19 -21 -27 -90 -14 -134 4 -17 3 -28 -2 -28 -6 0 -13 16 -17 35 -7 40 -23 48
-19 10 2 -14 -1 -23 -6 -19 -5 3 -9 -1 -10 -8 0 -7 -4 -4 -9 7 -37 86 42 208
154 236 48 12 115 2 175 -28z m687 -20 c-11 -11 -19 6 -11 24 8 17 8 17 12 0
3 -10 2 -21 -1 -24z m-6771 -26 c8 -19 21 -39 29 -47 9 -7 16 -18 16 -24 0 -6
-55 -39 -123 -72 -313 -157 -366 -182 -422 -204 -61 -23 -89 -40 -68 -40 6 0
16 -13 22 -30 10 -30 28 -38 46 -21 6 4 51 25 100 46 50 21 125 55 167 76 87
44 110 49 83 19 -10 -11 -22 -20 -27 -20 -14 0 -338 -153 -338 -159 0 -3 9
-20 19 -38 l20 -32 48 23 c156 75 325 148 330 142 7 -6 -227 -120 -309 -150
-26 -10 -50 -22 -53 -27 -8 -11 26 -69 40 -69 10 0 75 25 280 109 54 23 104
40 109 38 10 -3 -266 -124 -336 -146 -47 -16 -54 -26 -34 -56 15 -22 28 -46
77 -132 12 -21 26 -44 31 -50 7 -9 7 -13 0 -13 -12 0 -50 50 -72 93 -15 30
-21 32 -53 16 -21 -10 -21 -9 1 10 l23 20 -23 40 c-13 23 -27 41 -31 41 -20 0
-107 -44 -107 -54 0 -6 7 -22 16 -34 9 -13 14 -25 11 -28 -3 -3 -17 16 -31 42
-14 26 -25 48 -24 49 2 1 21 7 43 13 22 6 49 18 60 26 19 14 19 15 2 48 -10
18 -28 50 -40 70 l-23 37 -59 -25 c-56 -22 -61 -23 -72 -7 -7 9 -13 22 -13 27
0 6 4 5 9 -3 8 -13 17 -13 65 -1 70 17 71 29 8 112 -47 62 -48 63 -105 69 -32
4 -60 9 -64 12 -11 12 18 36 63 53 51 19 57 16 100 -51 18 -30 35 -45 48 -45
25 0 265 108 341 154 11 6 30 17 43 24 l22 13 -20 39 c-11 22 -20 44 -20 49 0
6 26 24 58 40 31 16 66 36 77 45 30 23 45 19 60 -17z m1235 -24 c11 -26 26
-50 32 -54 6 -4 8 -13 6 -20 -4 -13 -78 92 -78 111 0 25 21 6 40 -37z m-447
-7 c7 -21 6 -31 -4 -38 -11 -8 -10 -9 4 -4 12 4 20 -1 26 -17 5 -12 30 -65 55
-118 25 -53 46 -101 46 -107 0 -6 -10 -14 -22 -17 -13 -4 -139 -65 -280 -136
-142 -71 -260 -129 -263 -129 -3 0 -5 7 -5 15 0 8 -13 37 -30 63 -16 27 -30
53 -30 58 0 5 42 27 93 48 142 60 357 159 353 163 -1 2 -54 -20 -117 -48 -63
-28 -159 -69 -214 -91 -55 -23 -105 -45 -112 -50 -8 -7 -20 6 -38 41 -24 48
-24 52 -8 57 108 36 266 101 328 136 11 7 31 17 45 24 183 87 147 78 -90 -23
-274 -117 -297 -125 -320 -111 -41 26 -13 68 43 68 14 0 30 6 36 14 6 7 25 16
42 20 20 4 28 10 23 17 -4 8 -3 9 4 5 6 -4 19 -2 29 3 40 22 87 41 99 41 7 0
18 8 23 19 6 10 45 33 88 50 43 18 98 43 123 56 53 29 61 28 73 -9z m4614
-228 c-2 -29 -3 -6 -3 52 0 58 1 81 3 53 2 -29 2 -77 0 -105z m-5326 116 c7
-13 10 -25 8 -26 -2 -2 -43 -23 -91 -48 -48 -25 -88 -48 -88 -52 0 -12 7 -10
48 11 20 10 43 16 51 13 8 -2 11 0 7 6 -3 5 13 17 36 27 41 16 42 16 60 -7 10
-13 18 -27 18 -31 0 -13 -192 -99 -201 -90 -8 8 -69 147 -66 150 2 1 75 11
101 12 4 1 6 8 2 16 -4 13 -2 14 14 5 16 -8 20 -8 18 2 -2 7 3 12 11 10 7 -2
11 3 9 10 -4 9 4 13 22 14 20 1 32 -6 41 -22z m1295 -52 c4 -89 64 -193 134
-232 41 -23 56 -25 155 -25 61 1 142 5 182 9 60 7 76 6 98 -8 33 -22 27 -50
-32 -139 -45 -66 -122 -136 -191 -171 -57 -29 -46 -11 21 38 98 69 164 150
181 219 9 37 -11 44 -93 28 -211 -39 -299 -32 -383 32 -78 60 -130 211 -89
260 17 21 16 22 17 -11z m4474 -37 c0 -5 -5 -3 -10 5 -5 8 -10 20 -10 25 0 6
5 3 10 -5 5 -8 10 -19 10 -25z m-4559 -24 c-14 -25 -24 -26 -40 -7 -10 11 -7
17 11 30 28 20 44 6 29 -23z m4419 -11 c4 -69 0 -153 -7 -147 -3 4 -7 50 -7
102 -1 52 2 91 5 87 4 -4 8 -23 9 -42z m-5900 0 c0 -5 -5 -10 -11 -10 -5 0 -7
5 -4 10 3 6 8 10 11 10 2 0 4 -4 4 -10z m1505 -20 c-3 -5 -16 -15 -28 -21 -19
-9 -19 -8 3 10 28 23 34 26 25 11z m-1093 -160 c42 -85 77 -160 77 -165 1 -6
-13 -16 -29 -23 -17 -8 -49 -29 -72 -48 -47 -40 -66 -40 -88 -2 -14 25 -13 28
5 43 11 8 37 20 58 26 20 7 37 15 37 19 0 4 15 11 33 15 17 4 27 9 20 12 -6 2
-31 -5 -55 -15 -70 -32 -121 -52 -123 -50 -2 2 -13 23 -25 48 -52 106 -116
210 -129 210 -24 0 0 16 44 30 22 7 60 24 85 37 25 12 54 22 65 20 14 -1 39
-42 97 -157z m4475 144 c191 -39 384 -179 469 -339 16 -30 36 -68 45 -85 9
-16 19 -27 22 -23 20 20 74 -218 58 -258 -7 -20 -9 -18 -24 20 -9 23 -17 54
-16 69 l1 27 9 -25 c6 -18 7 -13 3 20 -8 67 -14 82 -30 76 -17 -6 -17 -1 -4
25 7 11 7 19 1 19 -5 0 -11 -6 -14 -12 -2 -7 -9 5 -15 27 -31 110 -179 285
-303 358 -112 66 -182 82 -354 82 -159 0 -215 -10 -337 -59 -94 -38 -166 -86
-249 -164 -86 -82 -139 -163 -189 -292 -45 -115 -53 -254 -20 -375 57 -214
216 -408 406 -497 139 -65 325 -86 476 -53 180 38 398 181 492 324 52 77 126
246 127 287 0 25 2 26 9 9 7 -19 8 -18 13 5 14 59 16 63 12 25 -7 -70 -17
-105 -28 -98 -6 4 -8 -2 -5 -15 4 -12 2 -24 -3 -27 -4 -3 -5 -13 -2 -22 4 -11
3 -14 -5 -9 -7 4 -12 1 -12 -8 0 -8 -6 -27 -14 -43 -8 -15 -23 -48 -34 -73
-30 -67 -161 -209 -233 -250 -89 -52 -201 -102 -274 -121 -96 -26 -261 -30
-375 -10 -215 38 -439 220 -538 436 -13 28 -29 61 -37 75 -35 67 -38 288 -5
407 43 156 139 293 281 399 133 100 254 150 429 177 63 10 198 6 267 -9z
m-1468 -406 c2 -256 2 -256 -21 -272 -12 -9 -31 -16 -42 -16 -17 0 -16 3 8 25
l26 24 0 244 c0 134 3 280 7 323 l8 79 6 -75 c3 -41 7 -190 8 -332z m-1974
383 c-25 -24 -452 -232 -473 -230 -8 0 466 239 476 239 3 0 2 -4 -3 -9z m3994
-255 c1 -82 -1 -147 -4 -144 -3 3 -7 95 -9 204 -3 125 -1 179 4 144 4 -30 8
-122 9 -204z m-5391 209 c-3 -3 -9 2 -12 12 -6 14 -5 15 5 6 7 -7 10 -15 7
-18z m-553 -61 c18 -43 19 -52 5 -38 -11 11 -32 74 -24 74 2 0 11 -16 19 -36z
m5347 12 c92 -18 166 -51 245 -109 71 -53 162 -159 193 -224 105 -224 51 -509
-130 -691 -34 -34 -66 -53 -192 -114 -10 -4 -27 -8 -37 -8 -11 0 -22 -4 -25
-9 -3 -5 -19 -7 -36 -5 -16 2 -30 0 -30 -4 0 -5 -34 -14 -74 -21 -74 -12 -181
-8 -221 9 -11 4 -40 16 -65 25 -107 39 -229 142 -297 250 -72 115 -101 301
-69 439 34 143 125 272 258 362 149 102 302 134 480 100z m2058 -50 c0 -2 -9
-6 -20 -9 -11 -3 -20 -1 -20 4 0 5 9 9 20 9 11 0 20 -2 20 -4z m64 -79 c-41
-126 -200 -397 -336 -571 -158 -203 -277 -340 -278 -319 0 7 20 36 45 65 271
321 445 585 535 813 38 96 43 105 48 82 2 -9 -4 -41 -14 -70z m-4254 -54 c8
-47 10 -206 8 -511 -2 -243 0 -442 3 -442 3 0 21 12 40 26 119 91 466 216 704
253 97 16 336 30 384 24 76 -10 30 -23 -82 -23 -294 -1 -596 -71 -852 -197
-103 -51 -211 -120 -222 -143 -4 -8 -9 -73 -12 -145 -4 -76 -10 -130 -16 -130
-6 0 -12 53 -15 130 -4 114 -8 134 -27 162 -41 57 -162 124 -358 199 -52 20
-94 38 -92 40 7 7 145 -36 227 -71 96 -41 138 -65 196 -112 l42 -34 5 413 c4
227 9 440 12 473 6 75 24 155 35 155 5 0 13 -30 20 -67z m467 10 c-3 -10 -5
-2 -5 17 0 19 2 27 5 18 2 -10 2 -26 0 -35z m-2222 27 c-3 -5 -12 -10 -18 -10
-7 0 -6 4 3 10 19 12 23 12 15 0z m-1298 -6 c-3 -3 -12 -4 -19 -1 -8 3 -5 6 6
6 11 1 17 -2 13 -5z m-56 -26 c-19 -17 -25 -18 -32 -7 -13 21 -11 24 23 26
l31 2 -22 -21z m504 -24 c-49 -24 -94 -43 -100 -43 -13 0 166 88 180 87 6 0
-30 -19 -80 -44z m758 5 l-31 -20 23 -23 c30 -30 48 -95 39 -144 -10 -61 -47
-112 -159 -222 -169 -166 -248 -281 -331 -479 -23 -55 -51 -91 -70 -91 -27 0
-213 134 -230 165 -23 44 -8 73 116 218 75 88 138 149 218 212 133 104 316
276 357 335 16 22 40 48 54 55 40 22 50 17 14 -6z m-903 -69 c-19 -11 -42 -19
-50 -19 -8 0 3 8 25 19 52 25 71 25 25 0z m166 -15 c-11 -8 -25 -15 -30 -15
-6 1 0 7 14 15 32 19 40 18 16 0z m-2121 -125 c58 -201 81 -262 160 -420 42
-83 75 -155 73 -161 -9 -27 -207 399 -208 448 0 7 -6 27 -14 45 -34 82 -71
236 -51 216 3 -3 21 -60 40 -128z m1835 119 c0 -7 10 -9 28 -4 21 5 24 4 15
-6 -13 -13 -63 -4 -63 11 0 6 5 10 10 10 6 0 10 -5 10 -11z m210 -28 c-8 -5
-26 -11 -40 -15 -21 -5 -20 -3 5 9 32 15 60 20 35 6z m5897 -43 c-3 -7 -5 -2
-5 12 0 14 2 19 5 13 2 -7 2 -19 0 -25z m-6016 -3 c-38 -17 -60 -20 -45 -6 9
9 38 18 64 19 8 1 0 -5 -19 -13z m-206 -19 c-28 -23 -45 -25 -45 -6 0 8 44 28
65 29 6 1 -3 -10 -20 -23z m5999 -42 c4 -19 10 -43 13 -52 3 -10 -2 -7 -12 7
-12 16 -20 19 -25 11 -4 -7 -7 -1 -7 15 0 20 2 24 9 14 7 -10 8 -5 4 14 -4 15
-2 27 3 27 5 0 12 -16 15 -36z m-5974 18 c0 -4 -5 -13 -12 -20 -19 -19 6 -15
47 8 54 31 56 23 3 -10 -27 -17 -48 -35 -48 -40 0 -19 -17 -10 -28 15 -7 15
-8 25 -2 25 6 0 10 7 10 15 0 8 7 15 15 15 8 0 15 -4 15 -8z m5690 -37 c0 -14
-2 -25 -4 -25 -2 0 -6 11 -8 25 -3 14 -1 25 3 25 5 0 9 -11 9 -25z m-5608 -45
c-36 -22 -42 -24 -42 -12 0 11 39 30 60 31 8 1 0 -8 -18 -19z m1403 0 c-32
-11 -61 -17 -63 -15 -8 8 63 33 93 34 23 0 15 -5 -30 -19z m1723 -16 c-4 -3
-16 0 -28 6 -18 10 -20 14 -9 21 15 9 48 -15 37 -27z m-1812 -17 c-159 -99
-267 -234 -446 -552 -146 -260 -270 -423 -403 -531 -95 -76 -133 -98 -142 -84
-3 6 -1 10 6 10 19 0 151 104 209 166 105 111 196 238 263 364 170 321 356
557 492 625 36 17 48 19 21 2z m2045 -273 c18 -21 2 -30 -19 -11 -10 10 -26
17 -35 17 -21 0 -22 16 -2 24 8 3 15 16 15 29 0 14 3 40 7 58 7 30 8 26 14
-34 4 -37 13 -75 20 -83z m-3621 28 c19 -11 43 -34 52 -53 19 -37 24 -104 8
-94 -5 3 -10 14 -10 24 0 10 -9 26 -20 36 -11 10 -20 14 -20 9 0 -5 -5 -2 -10
6 -9 13 -11 13 -20 0 -5 -8 -10 -26 -10 -39 0 -20 -3 -22 -22 -16 -13 4 -48
13 -78 19 -30 7 -55 18 -54 24 1 7 2 18 3 25 0 7 14 27 30 45 25 27 37 32 73
32 24 0 59 -8 78 -18z m-1490 -57 c-14 -17 -166 -95 -185 -95 -19 0 -28 32
-13 46 17 15 154 59 197 63 11 1 11 -2 1 -14z m1111 -198 c41 -27 61 -66 57
-109 l-3 -32 -27 30 c-14 16 -38 42 -52 58 -24 27 -32 29 -87 28 -68 -1 -92
-16 -115 -67 -16 -37 -18 -10 -3 34 27 76 155 109 230 58z m-906 -34 c11 -21
24 -41 30 -45 6 -5 6 -8 -1 -8 -7 0 -24 23 -39 51 -14 28 -23 49 -18 46 4 -3
17 -23 28 -44z m833 -54 c2 -9 -5 -19 -15 -23 -10 -3 -22 -8 -28 -11 -5 -2
-19 2 -29 10 -16 12 -17 17 -6 30 17 21 74 16 78 -6z m-765 -43 c4 -10 1 -13
-9 -9 -15 6 -19 23 -5 23 5 0 11 -7 14 -14z m1669 -6 c14 -7 31 -23 37 -37 14
-30 14 -73 1 -73 -5 0 -10 6 -10 13 0 7 -7 22 -15 33 -14 19 -14 19 -30 -3
-10 -14 -31 -24 -62 -29 -41 -6 -48 -4 -63 16 l-18 23 -26 -26 c-32 -32 -41
-21 -18 24 27 53 77 82 132 76 25 -3 58 -11 72 -17z m-1616 -73 c16 -31 127
-170 169 -212 11 -11 26 -29 34 -40 7 -11 -23 18 -68 64 -90 93 -203 252 -161
226 6 -3 17 -21 26 -38z m7110 17 c50 -24 36 -27 -22 -4 -27 10 -41 19 -31 20
11 0 34 -7 53 -16z m-5998 -44 c53 -32 100 -130 55 -113 -10 4 -24 15 -31 25
-12 17 -63 48 -78 48 -3 0 -1 -6 5 -14 15 -18 5 -43 -20 -49 -22 -6 -59 19
-59 39 0 22 -30 23 -50 2 -16 -18 -20 -19 -20 -6 0 9 15 33 34 52 29 32 39 36
82 36 31 0 61 -7 82 -20z m6629 6 c39 -7 83 -20 97 -30 36 -23 32 -30 -6 -10
-36 19 -163 43 -226 44 -24 0 -74 -7 -113 -16 -61 -14 -77 -23 -128 -69 -83
-77 -123 -161 -129 -268 -4 -81 -4 -83 29 -126 53 -69 104 -91 213 -91 201 0
334 77 408 236 28 59 30 72 25 132 -4 37 -9 81 -12 97 l-7 30 24 -35 c19 -29
23 -48 23 -110 0 -65 -5 -85 -32 -140 -17 -36 -48 -84 -69 -108 -44 -51 -144
-118 -198 -133 -106 -29 -534 -33 -3206 -34 -1976 0 -2154 1 -2110 15 14 4 49
8 78 9 38 1 51 4 46 13 -5 8 0 9 17 3 29 -11 730 -19 779 -9 32 6 26 9 -65 30
-155 36 -392 117 -494 168 -61 31 -168 96 -159 96 4 0 67 -27 139 -61 168 -77
346 -136 579 -191 l185 -43 684 -3 c390 -1 713 1 752 7 72 10 334 87 434 128
74 30 107 45 269 122 123 59 168 74 109 36 -15 -10 -44 -29 -63 -44 -19 -14
-38 -27 -42 -27 -5 -1 -13 -2 -19 -3 -5 0 -7 -6 -4 -11 4 -6 3 -9 -2 -8 -9 2
-105 -41 -113 -51 -3 -4 -25 -13 -50 -21 -25 -8 -65 -25 -90 -37 -25 -13 -53
-23 -63 -23 -11 0 -33 -7 -51 -15 -18 -9 -61 -22 -97 -29 -62 -13 -63 -14 -29
-20 19 -4 186 -6 370 -4 l335 3 55 31 c30 17 73 41 95 53 l40 23 -40 -36 c-22
-20 -53 -44 -70 -54 l-30 -16 25 -4 c14 -2 151 -2 305 1 275 6 373 14 348 30
-31 19 -9 25 24 7 33 -18 57 -20 193 -20 150 0 158 1 211 27 30 16 87 60 130
103 70 69 79 82 103 155 25 75 26 77 21 30 -13 -107 -95 -226 -198 -285 -36
-21 -44 -29 -32 -34 25 -9 98 -7 115 4 8 5 12 10 8 10 -8 0 26 83 42 103 5 6
19 23 29 37 11 14 22 22 25 19 11 -11 -36 -121 -61 -145 -20 -18 -21 -23 -7
-28 20 -8 152 -6 224 3 l55 7 -37 12 c-21 8 -58 33 -82 57 -68 66 -82 142 -47
254 40 129 125 221 234 252 74 21 202 23 304 5z m-148 -163 c30 -10 34 -9 38
8 4 15 9 17 19 8 7 -6 19 -7 25 -3 8 4 9 3 5 -4 -4 -7 -1 -12 7 -12 8 0 17
-14 21 -32 5 -26 9 -30 16 -18 5 8 10 12 10 8 0 -3 3 -14 7 -24 4 -12 3 -15
-5 -10 -8 5 -12 -1 -12 -16 0 -16 -3 -19 -9 -10 -6 11 -10 10 -15 -4 -4 -9 -2
-22 3 -27 6 -6 6 -16 1 -26 -5 -9 -11 -24 -14 -34 -3 -9 -14 -20 -23 -24 -10
-4 -23 -12 -30 -17 -37 -32 -44 -36 -54 -30 -6 4 -15 1 -19 -6 -11 -18 -87
-28 -130 -17 -91 23 -129 63 -114 121 16 65 193 211 228 188 6 -4 26 -12 45
-19z m-407 -28 c3 -13 1 -22 -3 -19 -9 5 -13 44 -5 44 2 0 6 -11 8 -25z m-163
-111 c12 -15 21 -32 21 -38 0 -6 -7 -2 -15 8 -15 19 -15 19 -16 -5 l0 -24 -10
23 c-5 13 -13 21 -18 17 -5 -3 -12 -1 -15 4 -4 5 -1 13 5 17 8 4 7 9 -2 15
-10 6 -8 9 8 9 12 0 31 -12 42 -26z m-3114 -35 c76 -23 195 -100 254 -164 23
-25 43 -45 44 -45 1 0 36 33 77 73 93 90 210 154 299 163 66 7 143 -12 193
-47 30 -22 53 -87 43 -119 -10 -30 -23 -24 -17 8 l5 27 -34 -30 c-19 -16 -38
-35 -44 -40 -20 -21 -86 -55 -106 -55 -26 0 -60 17 -79 40 -13 16 -28 18 -132
13 -65 -3 -115 -10 -112 -14 3 -5 0 -9 -5 -9 -6 0 -11 5 -11 10 0 6 -8 5 -19
-2 -11 -7 -18 -15 -16 -18 7 -11 -62 -5 -76 7 -8 6 -25 11 -39 10 -14 0 -68 3
-120 8 -91 7 -98 6 -148 -19 -28 -14 -58 -26 -66 -26 -18 0 -49 17 -109 58
-27 19 -53 30 -60 26 -6 -4 -9 -4 -5 0 3 4 -2 16 -13 27 -15 15 -17 23 -8 46
37 98 141 123 304 72z m-3476 -83 c19 -14 32 -26 27 -26 -15 0 -62 29 -81 50
-20 23 -20 23 0 12 11 -6 35 -22 54 -36z m6433 19 c8 -19 9 -28 0 -37 -8 -8
-9 -5 -5 10 6 25 -23 43 -52 31 -35 -14 -53 -10 -31 6 32 24 75 19 88 -10z
m-3467 -65 c42 -17 108 -35 148 -40 90 -13 117 -33 32 -24 -33 3 -83 12 -111
20 -51 14 -164 62 -164 70 0 9 22 3 95 -26z m-1655 12 c0 -4 -30 -22 -66 -40
-75 -37 -81 -30 -7 8 26 14 50 28 51 33 5 9 22 9 22 -1z m3264 -24 c-73 -28
-185 -58 -214 -57 -14 0 11 11 55 24 44 13 105 32 135 43 69 24 90 16 24 -10z
m-4309 -93 c40 -18 16 -19 -26 0 -19 8 -27 14 -19 14 8 0 29 -6 45 -14z m175
-45 c52 -10 111 -21 130 -24 19 -2 -1 -3 -45 -1 -73 3 -225 38 -225 52 0 3 10
2 23 -1 12 -4 65 -15 117 -26z m7485 21 c-12 -11 -588 -20 -577 -9 4 4 73 9
152 11 350 7 434 7 425 -2z m-7028 -27 c-3 -3 -12 -4 -19 -1 -8 3 -5 6 6 6 11
1 17 -2 13 -5z m-77 -14 c0 -5 -19 -9 -42 -9 l-43 2 40 7 c22 4 41 8 43 9 1 0
2 -3 2 -9z m6512 -23 c-7 -8 -18 -52 -26 -98 l-15 -84 3 83 c3 62 8 88 21 102
20 22 35 19 17 -3z m-1786 -226 c50 -23 62 -34 67 -57 3 -16 4 -31 2 -32 -2
-2 -27 14 -57 36 -87 65 -153 76 -193 32 -9 -10 -15 -29 -13 -42 4 -27 37 -46
162 -90 111 -39 155 -75 163 -135 11 -83 -60 -160 -160 -170 -64 -7 -115 8
-174 50 -23 16 -46 27 -51 23 -9 -6 -22 38 -22 77 0 16 11 9 58 -35 62 -60
108 -80 183 -81 62 -1 89 21 89 73 0 49 -19 64 -127 105 -116 43 -147 59 -172
91 -27 34 -27 68 0 111 47 75 143 93 245 44z m-4106 -5 c20 -8 38 -25 46 -45
14 -34 1 -43 -16 -11 -6 11 -27 31 -48 45 -40 27 -32 33 18 11z m530 -14 c0
-31 117 -354 139 -383 29 -38 18 -54 -20 -32 -24 14 -36 15 -69 6 -37 -10 -54
-3 -29 13 7 4 8 20 4 42 -8 42 -82 243 -94 255 -4 4 -23 -29 -40 -73 -18 -45
-30 -84 -27 -87 3 -3 28 -7 56 -8 28 -1 54 -5 57 -9 7 -7 -44 -11 -98 -7 -34
2 -38 -1 -53 -39 -9 -22 -16 -51 -16 -64 0 -17 -7 -25 -25 -28 -28 -6 -32 7
-12 31 8 9 31 57 52 106 21 50 51 119 67 154 28 61 30 83 13 123 -5 14 0 17
37 20 52 4 58 2 58 -20z m647 17 c29 -11 93 -67 93 -81 0 -17 -27 -6 -69 27
-52 41 -107 47 -158 15 -53 -32 -68 -71 -68 -181 0 -88 2 -99 28 -138 39 -58
92 -76 147 -48 20 10 26 22 31 61 4 42 3 50 -13 54 -31 8 -16 35 32 60 78 39
80 37 80 -83 0 -63 -4 -105 -10 -105 -5 0 -10 5 -10 12 0 6 -3 8 -7 5 -3 -4 2
-16 12 -27 10 -11 16 -23 13 -26 -3 -3 -15 7 -27 22 -12 15 -26 24 -33 20 -7
-4 -24 -13 -38 -21 -14 -8 -51 -15 -83 -15 -69 0 -120 23 -165 74 -80 91 -67
263 24 332 61 47 160 66 221 43z m3966 -18 c24 -15 37 -17 50 -9 25 13 26 10
20 -43 l-5 -47 -42 43 c-52 54 -93 64 -170 40 -89 -28 -101 -53 -101 -215 0
-132 39 -180 147 -180 65 0 127 29 153 72 15 26 20 29 23 16 5 -28 -37 -78
-82 -99 -113 -51 -262 -2 -318 104 -30 57 -30 155 0 214 59 113 224 166 325
104z m-3523 11 c0 -4 -4 -12 -10 -18 -5 -5 -10 -82 -12 -171 -3 -159 -3 -161
21 -187 31 -34 85 -48 134 -36 85 19 107 74 107 264 0 90 -3 116 -15 126 -20
16 -13 23 25 24 23 1 29 -2 23 -14 -4 -8 -10 -94 -14 -190 -3 -96 -7 -176 -8
-178 0 -1 -22 -16 -48 -32 -62 -39 -155 -42 -223 -7 -78 39 -84 55 -88 235 -3
121 -8 159 -18 165 -8 5 -12 12 -9 18 7 11 135 12 135 1z m929 -29 c19 -40 50
-115 96 -243 15 -41 31 -79 35 -83 4 -4 16 16 28 45 12 29 45 112 74 183 l54
130 67 0 c37 0 67 -1 67 -4 0 -2 -7 -12 -16 -22 -14 -16 -16 -45 -15 -199 1
-100 5 -188 8 -197 5 -13 3 -15 -13 -8 -24 11 -60 11 -99 1 l-30 -7 23 19 c21
19 22 27 22 164 0 78 -4 149 -8 156 -8 11 -89 -167 -142 -310 -12 -32 -27 -58
-34 -58 -7 0 -24 26 -38 58 -15 31 -55 119 -89 195 -34 76 -66 140 -72 144 -6
4 -8 -53 -5 -166 5 -154 7 -173 24 -186 17 -12 14 -13 -26 -10 -25 2 -47 4
-50 5 -3 0 2 5 10 10 12 8 16 43 18 193 3 158 2 185 -12 196 -28 24 -17 31 44
31 59 0 60 0 79 -37z m761 22 c0 -7 -4 -17 -10 -20 -6 -4 -10 -70 -10 -164 0
-144 2 -161 20 -184 39 -49 121 -55 186 -12 43 28 54 71 54 217 0 119 -2 134
-20 153 l-21 22 46 -1 c50 -1 51 -2 30 -30 -12 -15 -15 -53 -15 -166 0 -136
-2 -150 -23 -180 -50 -75 -143 -94 -244 -50 -79 33 -93 71 -100 253 -3 78 -9
147 -14 153 -14 17 -4 20 61 22 46 1 60 -2 60 -13z m1270 5 c0 -5 -4 -10 -10
-10 -6 0 -10 -75 -10 -204 l0 -204 -52 -4 c-60 -5 -67 -3 -50 14 15 15 17 384
2 393 -25 16 -5 25 55 25 37 0 65 -4 65 -10z m-4619 -151 c142 -52 159 -68
159 -151 0 -28 -8 -47 -31 -73 -43 -49 -78 -65 -142 -65 -88 0 -114 9 -167 61
-58 56 -68 87 -13 39 48 -43 112 -70 176 -77 43 -4 57 -1 80 17 31 25 37 81
12 117 -10 14 -12 24 -5 28 16 10 12 21 -14 35 -14 7 -22 18 -20 24 2 6 -22
22 -56 35 -34 14 -63 28 -66 33 -7 11 -7 11 87 -23z m5886 -1 c-3 -8 -6 -5 -6
6 -1 11 2 17 5 13 3 -3 4 -12 1 -19z m12 -289 l1 -35 341 4 c215 3 344 1 350
-5 7 -7 -107 -12 -326 -15 -185 -3 -339 -9 -342 -12 -4 -4 5 -48 20 -99 29
-102 34 -147 15 -147 -7 0 -634 -2 -1393 -4 -973 -3 -1404 -7 -1460 -15 -44
-7 -118 -16 -165 -21 -196 -20 -477 -108 -567 -176 l-33 -25 -37 30 c-45 35
-116 73 -146 77 -12 2 -62 17 -112 34 -96 33 -309 75 -440 86 -44 4 -678 9
-1409 11 l-1328 4 6 57 c7 64 44 189 45 155 1 -12 -6 -48 -14 -80 -8 -31 -15
-67 -15 -80 l0 -22 1323 -4 c1282 -3 1327 -4 1472 -24 326 -46 536 -106 646
-185 13 -9 22 -7 45 9 91 65 366 140 639 175 152 19 231 21 1525 27 751 4
1375 3 1387 -1 14 -4 25 -3 29 4 4 7 3 8 -5 4 -7 -5 -13 3 -17 23 -4 17 -13
36 -20 42 -11 9 -11 15 -3 25 9 11 8 18 -1 29 -6 8 -9 19 -5 24 7 12 -5 38
-20 43 -5 2 -11 14 -12 28 -1 14 -5 58 -9 98 -5 51 -3 72 5 72 7 0 12 27 13
78 1 70 2 67 8 -38 4 -63 8 -131 9 -151z m-6980 -43 c-7 -7 -668 -10 -676 -3
-3 4 148 7 337 7 189 0 341 -2 339 -4z m6981 -76 c0 -5 -2 -10 -4 -10 -3 0 -8
5 -11 10 -3 6 -1 10 4 10 6 0 11 -4 11 -10z m-8885 -240 c3 -6 -1 -7 -9 -4
-18 7 -21 14 -7 14 6 0 13 -4 16 -10z m72 -22 c-3 -8 -6 -5 -6 6 -1 11 2 17 5
13 3 -3 4 -12 1 -19z m73 2 c0 -5 -4 -10 -10 -10 -5 0 -10 5 -10 10 0 6 5 10
10 10 6 0 10 -4 10 -10z m-248 -17 c24 -22 23 -28 -7 -28 -19 0 -25 5 -25 23
0 26 7 28 32 5z m113 -4 c0 -18 -47 -19 -51 -1 -1 7 0 8 3 2 6 -12 43 -13 43
-1 0 5 -5 12 -10 14 -6 3 -5 4 2 3 7 -2 13 -9 13 -17z m4790 -14 c39 -7 96
-23 127 -35 112 -42 218 -181 218 -286 0 -63 -47 -134 -115 -171 -72 -39 -164
-40 -223 0 -23 15 -42 33 -42 40 1 8 5 6 13 -4 38 -50 150 -68 217 -34 43 22
97 71 116 107 31 60 7 176 -47 225 -108 97 -117 102 -249 133 -103 24 -264 27
-335 5 -27 -8 -68 -28 -93 -46 -37 -27 -42 -28 -33 -10 24 43 93 76 201 95 36
6 164 -4 245 -19z m-4678 -7 c-3 -8 -6 -5 -6 6 -1 11 2 17 5 13 3 -3 4 -12 1
-19z m43 11 c0 8 2 12 5 9 3 -3 3 -13 -1 -22 -7 -19 -24 -11 -24 12 0 15 2 15
10 2 8 -12 10 -12 10 -1z m6047 -5 c42 -14 128 -64 111 -64 -3 0 -30 12 -60
28 -52 26 -57 27 -218 27 -146 -1 -173 -3 -239 -24 -43 -14 -97 -42 -132 -68
-32 -23 -59 -39 -59 -35 0 16 100 83 159 107 80 33 141 42 278 44 80 1 126 -4
160 -15z m-6412 -3 c3 -5 1 -12 -5 -16 -5 -3 -10 1 -10 9 0 18 6 21 15 7z
m465 -2 c12 -8 10 -9 -7 -4 -21 6 -33 -8 -15 -18 4 -2 1 -2 -5 -1 -7 2 -13 -4
-13 -12 0 -8 -4 -12 -10 -9 -6 4 -4 16 6 31 18 27 23 28 44 13z m-515 -19 c3
-5 1 -10 -4 -10 -6 0 -11 5 -11 10 0 6 2 10 4 10 3 0 8 -4 11 -10z m35 -20 c0
-5 -2 -10 -4 -10 -3 0 -8 5 -11 10 -3 6 -1 10 4 10 6 0 11 -4 11 -10z m-22
-25 c-3 -3 -9 2 -12 12 -6 14 -5 15 5 6 7 -7 10 -15 7 -18z m590 -19 c-4 -25
-33 -33 -54 -15 -13 10 -12 15 7 35 17 19 25 21 36 12 8 -6 13 -21 11 -32z
m-637 -8 c8 -15 8 -18 0 -14 -6 4 -16 16 -22 28 -8 15 -8 18 0 14 6 -4 16 -16
22 -28z m4209 7 c184 -30 260 -54 432 -137 178 -85 210 -93 271 -64 44 22 46
37 10 66 -22 17 -38 21 -73 18 -25 -3 -54 -8 -65 -12 -17 -7 -17 -5 4 13 28
25 98 28 140 6 16 -8 36 -31 46 -52 10 -21 20 -42 23 -48 3 -5 -1 -4 -10 3
-14 11 -23 10 -59 -9 -69 -35 -120 -25 -297 59 -176 83 -230 103 -372 133 -91
20 -134 23 -325 23 -253 0 -344 -15 -545 -86 -63 -22 -160 -56 -215 -76 -87
-31 -113 -36 -195 -36 -74 -1 -103 3 -132 18 -39 19 -98 73 -98 89 0 5 12 -4
28 -20 50 -55 87 -68 192 -67 86 0 106 4 215 43 292 104 423 137 605 155 83 8
324 -3 420 -19z m3260 15 c184 -19 293 -46 530 -130 226 -80 351 -88 445 -29
55 35 56 19 1 -25 -38 -31 -39 -31 -154 -30 -113 1 -122 3 -252 49 -403 142
-446 150 -754 150 -126 0 -223 1 -215 3 124 21 265 26 399 12z m-500 -41
c-122 -27 -167 -44 -330 -119 -80 -37 -177 -75 -217 -84 l-72 -18 -45 32 c-25
17 -46 35 -46 40 0 6 -8 10 -17 10 -14 0 -12 4 7 25 29 31 98 65 133 65 29 0
137 -49 137 -62 0 -15 -30 -8 -80 17 -27 14 -58 25 -68 25 -24 0 -89 -26 -97
-40 -10 -16 11 -45 48 -65 31 -16 41 -17 92 -7 32 7 117 38 189 70 189 85 332
130 416 130 22 0 4 -7 -50 -19z m-1418 -20 c34 -32 25 -29 -26 9 -16 12 -24
22 -18 22 7 0 26 -14 44 -31z m-2563 -3 c29 -16 59 -46 45 -46 -5 0 -20 9 -34
20 -14 11 -30 20 -37 20 -15 0 -28 20 -13 20 6 0 23 -6 39 -14z m5351 -1 c0
-6 -12 -9 -25 -7 -13 2 -38 -4 -55 -13 -18 -9 -34 -14 -37 -11 -6 5 25 20 77
36 30 10 42 8 40 -5z m-7975 -41 c49 -32 40 -101 -17 -125 -22 -9 -32 -8 -57
7 -50 30 -50 83 1 118 28 20 43 20 73 0z m350 -3 c-3 -6 -11 -11 -17 -11 -6 0
-6 6 2 15 14 17 26 13 15 -4z m-801 -6 c11 -8 16 -15 10 -15 -5 0 -18 7 -28
15 -11 8 -16 15 -10 15 5 0 18 -7 28 -15z m812 -34 c-13 -15 -14 -20 -4 -24 8
-4 7 -6 -4 -6 -20 -1 -24 14 -7 25 8 4 7 9 -2 15 -10 6 -7 9 10 9 23 0 23 -1
7 -19z m4901 -33 c-3 -8 -6 -5 -6 6 -1 11 2 17 5 13 3 -3 4 -12 1 -19z m-5771
-5 c13 -17 13 -17 14 0 0 9 7 17 16 17 14 0 14 -1 0 -16 -9 -8 -14 -20 -11
-25 11 -17 -1 -9 -25 16 -13 14 -20 25 -15 25 4 0 14 -8 21 -17z m689 -45 c42
-192 45 -186 -68 -151 -45 14 -85 30 -89 36 -4 7 0 20 9 29 13 15 19 16 32 5
14 -10 14 -10 4 4 -11 13 -10 19 5 33 10 9 22 14 25 11 4 -3 5 -2 2 2 -8 11
37 53 57 53 10 0 20 -9 23 -22z m202 -4 c-3 -3 -12 -4 -19 -1 -8 3 -5 6 6 6
11 1 17 -2 13 -5z m3938 -40 c28 -19 65 -45 82 -57 18 -12 35 -28 38 -35 3 -8
-12 -1 -32 15 -21 16 -64 47 -95 67 -32 21 -58 40 -58 42 0 10 19 1 65 -32z
m840 -27 c6 -1 14 8 20 21 10 23 25 30 25 11 0 -13 -64 -96 -90 -116 -19 -16
-59 -27 -67 -19 -4 3 7 21 24 39 34 35 62 86 64 114 1 10 4 3 8 -15 3 -18 11
-34 16 -35z m205 29 c6 -19 33 -64 61 -100 51 -68 49 -81 -8 -46 -34 20 -53
50 -77 121 -19 54 -19 59 -2 59 8 0 20 -15 26 -34z m-65 14 c-8 -13 13 -90 25
-90 6 0 10 -7 10 -16 0 -11 -6 -14 -20 -9 -11 4 -20 2 -20 -4 0 -6 6 -11 13
-11 7 0 13 -14 14 -33 2 -28 1 -30 -11 -14 -25 32 -39 21 -33 -28 4 -38 2 -43
-8 -29 -7 11 -17 14 -25 9 -10 -6 -11 -1 -6 21 5 20 4 26 -3 19 -6 -6 -13 -27
-15 -48 -3 -20 -10 -45 -16 -55 -8 -13 -9 4 -4 66 4 57 3 82 -5 82 -18 0 -13
15 14 44 14 15 30 24 37 20 7 -4 8 -3 4 5 -4 6 -12 9 -17 5 -6 -3 -7 5 -3 23
8 34 24 54 24 30 0 -9 5 -17 10 -17 6 0 10 9 10 20 0 11 7 20 16 20 8 0 12 -4
9 -10z m-335 -14 c0 -31 -30 -46 -86 -45 -31 1 -60 -3 -69 -11 -13 -10 -15 -9
-15 8 0 26 18 40 66 51 62 14 104 13 104 -3z m695 -5 c66 -21 80 -41 39 -60
-32 -14 -42 -8 -20 14 20 21 21 32 1 15 -12 -10 -21 -10 -47 1 -18 8 -41 12
-50 11 -18 -3 -25 18 -11 31 10 10 22 9 88 -12z m-5773 -51 c15 -30 26 -60 23
-67 -2 -7 2 -10 9 -7 17 7 68 -14 62 -25 -4 -5 2 -7 12 -4 21 5 47 -21 37 -37
-4 -6 -14 -9 -22 -6 -8 3 -12 2 -9 -2 3 -5 -17 -18 -43 -30 -35 -15 -50 -28
-55 -47 -4 -14 -11 -23 -15 -20 -5 3 -7 -3 -4 -13 2 -10 -5 -29 -16 -43 -18
-22 -21 -23 -36 -8 -9 9 -18 28 -18 42 -1 14 -5 23 -8 21 -10 -6 -29 45 -23
63 5 14 4 15 -4 4 -8 -11 -20 -9 -66 12 -51 23 -56 29 -47 46 12 21 97 54 114
44 5 -3 7 -2 4 3 -9 15 51 136 66 132 6 -2 24 -28 39 -58z m545 28 c-3 -8 -6
-5 -6 6 -1 11 2 17 5 13 3 -3 4 -12 1 -19z m5400 -55 c-26 -53 -71 -89 -123
-99 -43 -8 -95 2 -120 22 -18 15 -18 15 3 5 32 -16 107 -13 150 4 43 18 91 75
101 120 4 19 7 24 10 13 2 -10 -7 -39 -21 -65z m-5424 50 c-7 -2 -19 -2 -25 0
-7 3 -2 5 12 5 14 0 19 -2 13 -5z m5634 -38 c-45 -42 -87 -59 -87 -35 0 6 6
10 13 10 8 0 36 16 63 35 66 47 69 44 11 -10z m-6559 28 c-21 -5 -24 -29 -5
-36 7 -3 5 -6 -5 -6 -13 -1 -18 7 -18 24 0 20 5 25 23 24 16 -1 18 -2 5 -6z
m945 -70 c-7 -2 -19 -2 -25 0 -7 3 -2 5 12 5 14 0 19 -2 13 -5z m-13 -28 c0
-9 -9 -15 -22 -14 -17 1 -19 2 -5 6 9 2 17 9 17 14 0 5 2 9 5 9 3 0 5 -7 5
-15z m4775 5 c3 -5 2 -10 -4 -10 -5 0 -16 -6 -23 -13 -17 -17 -83 -57 -93 -57
-4 0 12 14 36 32 24 17 48 37 52 45 9 15 23 17 32 3z m-5715 -27 c-14 -3 -28
-10 -32 -17 -5 -7 -8 -5 -8 7 0 13 8 17 33 16 27 -2 28 -2 7 -6z m5789 -75
c-1 -13 -5 -34 -9 -48 -7 -20 -8 -16 -9 23 -1 26 4 47 9 47 6 0 10 -10 9 -22z
m-5752 6 c-3 -3 -12 -4 -19 -1 -8 3 -5 6 6 6 11 1 17 -2 13 -5z m888 -62 c-3
-3 -12 3 -20 14 -13 17 -14 17 -15 2 0 -10 -7 -18 -16 -18 -14 0 -14 1 0 16 9
8 13 21 9 27 -3 7 6 1 20 -12 15 -14 25 -27 22 -29z m-865 -1 c0 -6 -5 -13
-10 -16 -6 -4 -8 -11 -5 -16 4 -5 -2 -9 -11 -9 -16 0 -16 1 0 19 13 15 14 20
4 24 -8 4 -7 6 5 6 9 1 17 -3 17 -8z m810 -62 c17 -13 18 -17 5 -10 -33 17
-51 31 -40 31 6 0 21 -10 35 -21z m-810 -4 c-7 -8 -17 -15 -22 -15 -6 0 -5 7
2 15 7 8 17 15 22 15 6 0 5 -7 -2 -15z m83 -72 c-14 -5 -18 -35 -6 -46 3 -4
15 0 25 9 15 14 16 20 5 33 -11 14 -10 14 6 2 17 -13 17 -15 -4 -37 -17 -18
-25 -21 -36 -13 -22 19 -15 60 11 58 6 0 5 -3 -1 -6z m638 -26 c12 -22 12 -22
-10 -3 -11 11 -21 23 -21 28 0 14 19 -1 31 -25z m-57 -23 c3 -8 2 -12 -4 -9
-6 3 -10 10 -10 16 0 14 7 11 14 -7z m-470 -40 c-18 -27 -23 -28 -44 -13 -12
8 -10 9 8 4 20 -6 32 8 15 18 -5 2 -2 2 5 1 6 -2 12 4 12 12 0 8 4 12 10 9 6
-4 4 -16 -6 -31z m70 -10 c3 -8 2 -12 -4 -9 -6 3 -10 1 -10 -6 0 -7 -2 -10 -5
-7 -5 5 4 38 10 38 2 0 6 -7 9 -16z m282 -41 c-5 -12 -10 -11 -26 10 -25 32
-25 36 0 30 12 -3 21 0 21 8 1 8 4 4 6 -9 3 -13 2 -30 -1 -39z m-249 25 c-3
-8 -6 -5 -6 6 -1 11 2 17 5 13 3 -3 4 -12 1 -19z m333 12 c0 -5 -2 -10 -4 -10
-3 0 -8 5 -11 10 -3 6 -1 10 4 10 6 0 11 -4 11 -10z m-174 -18 c1 -7 0 -8 -3
-2 -7 14 -43 13 -43 -2 0 -6 -3 -9 -6 -5 -3 3 -3 11 1 17 9 15 48 9 51 -8z
m-166 -22 c0 -5 -4 -10 -10 -10 -5 0 -10 5 -10 10 0 6 5 10 10 10 6 0 10 -4
10 -10z m57 -12 c-3 -8 -6 -5 -6 6 -1 11 2 17 5 13 3 -3 4 -12 1 -19z m88 -16
c-3 -3 -11 0 -18 7 -9 10 -8 11 6 5 10 -3 15 -9 12 -12z"/>
<path d="M6388 11519 c-32 -30 -35 -39 -13 -39 7 0 19 -8 25 -17 10 -16 11
-16 6 -1 -3 9 0 18 5 20 6 2 9 17 7 33 l-3 30 -27 -26z"/>
<path d="M4770 11053 c-249 -143 -630 -385 -705 -447 -22 -18 -25 -25 -14 -26
9 0 19 7 23 15 3 8 11 15 17 15 7 0 26 11 43 23 46 35 452 289 591 369 138 80
134 78 109 78 -10 -1 -39 -12 -64 -27z"/>
<path d="M6070 11008 c0 -2 32 -34 70 -72 39 -38 70 -64 70 -58 0 7 -19 30
-42 53 -42 39 -98 84 -98 77z"/>
<path d="M6870 11638 c-65 -44 -86 -88 -166 -347 -34 -109 29 -36 87 102 23
53 45 97 49 97 4 0 11 -7 14 -16 9 -23 7 -31 -3 -15 -6 10 -11 1 -16 -28 -4
-22 -11 -41 -16 -41 -6 0 -7 -5 -4 -10 4 -6 2 -17 -4 -24 -7 -8 -13 -28 -14
-45 -1 -17 -5 -31 -8 -31 -4 0 -15 -12 -24 -27 -10 -16 -12 -22 -4 -15 7 6 29
12 48 12 29 0 44 10 108 76 41 42 76 74 79 71 3 -3 -4 -22 -15 -43 -22 -40
-28 -90 -11 -79 6 3 10 21 10 40 0 19 6 38 14 42 13 8 17 27 30 179 6 57 4 62
-22 88 -41 38 -88 44 -132 14z"/>
<path d="M7581 11346 c17 -17 191 -125 210 -131 13 -4 34 -13 47 -21 29 -19
28 -10 -5 32 -25 33 -89 84 -142 111 -21 12 -121 19 -110 9z"/>
<path d="M8023 11047 c31 -18 94 -52 139 -77 45 -25 100 -57 122 -71 39 -24
315 -196 345 -214 10 -6 12 -4 6 5 -17 28 -426 285 -562 354 -89 45 -129 47
-50 3z"/>
<path d="M9060 9999 c-13 -9 -12 -10 2 -5 12 4 15 1 11 -11 -4 -11 -2 -14 8
-11 16 5 19 30 4 35 -5 1 -17 -2 -25 -8z"/>
<path d="M7875 10910 c-3 -5 -1 -10 4 -10 6 0 11 5 11 10 0 6 -2 10 -4 10 -3
0 -8 -4 -11 -10z"/>
<path d="M3926 10011 c-4 -5 3 -7 14 -4 23 6 26 13 6 13 -8 0 -17 -4 -20 -9z"/>
<path d="M8670 10180 c8 -5 20 -10 25 -10 6 0 3 5 -5 10 -8 5 -19 10 -25 10
-5 0 -3 -5 5 -10z"/>
<path d="M8915 10000 c-3 -5 -1 -10 4 -10 6 0 11 5 11 10 0 6 -2 10 -4 10 -3
0 -8 -4 -11 -10z"/>
<path d="M9908 9760 c-20 -11 -60 -41 -88 -67 -44 -40 -54 -56 -59 -93 -4 -25
-5 -516 -3 -1092 l4 -1047 27 13 c46 25 111 87 149 144 l37 55 120 33 c128 35
195 60 195 72 -1 4 -23 30 -50 57 -54 54 -60 75 -31 104 22 22 89 37 104 22
14 -14 27 -107 20 -142 -3 -16 -1 -29 4 -29 5 0 42 16 82 35 61 30 71 38 66
55 -6 18 -4 19 19 10 26 -10 66 -2 48 9 -15 10 -71 125 -128 266 -28 72 -64
157 -78 190 -15 33 -31 69 -35 80 -116 264 -249 512 -330 615 -57 72 -80 141
-82 240 l-1 75 -19 -70 c-15 -56 -17 -81 -9 -125 5 -30 8 -80 5 -110 -2 -30
-4 -80 -5 -110 -1 -30 -4 -47 -7 -37 -2 9 -8 15 -12 12 -12 -7 -32 145 -38
295 -4 112 -2 157 17 265 24 143 37 183 79 235 29 37 44 60 39 60 -2 -1 -19
-10 -40 -20z m149 -877 c83 -149 279 -560 297 -623 4 -14 14 -38 21 -55 41
-94 45 -108 34 -122 -9 -10 -9 -12 2 -8 10 3 27 -23 56 -83 23 -48 39 -89 36
-92 -7 -7 -43 39 -43 56 0 8 -6 14 -14 14 -8 0 -16 16 -20 40 -3 23 -10 39
-15 36 -7 -5 -23 26 -47 89 -4 11 -6 28 -5 39 2 10 -2 15 -7 12 -6 -4 -14 -1
-18 5 -5 8 -3 9 6 4 25 -16 -7 53 -40 85 -16 15 -40 62 -50 98 -6 23 -15 42
-19 42 -5 0 -11 14 -15 31 -5 28 -26 61 -70 111 -15 17 -23 40 -30 84 -2 10
-8 18 -14 17 -7 -2 -9 12 -6 35 3 27 2 32 -5 17 -8 -18 -9 -17 -16 10 -13 52
-58 116 -77 111 -20 -5 -24 9 -7 20 16 10 3 90 -21 131 -11 19 -20 39 -20 45
0 19 60 -65 107 -149z"/>
<path d="M10391 8104 c0 -11 3 -14 6 -6 3 7 2 16 -1 19 -3 4 -6 -2 -5 -13z"/>
<path d="M9750 9664 c0 -8 5 -12 10 -9 6 4 8 11 5 16 -9 14 -15 11 -15 -7z"/>
<path d="M2921 9618 c-1 -16 4 -28 9 -28 12 0 12 8 0 35 -8 18 -9 17 -9 -7z"/>
<path d="M2727 9073 c-32 -42 -55 -79 -52 -82 4 -3 10 1 15 9 5 8 23 35 42 59
57 76 61 81 56 86 -2 2 -30 -30 -61 -72z"/>
<path d="M6910 8755 c-14 -8 -51 -14 -82 -15 l-57 0 -5 -52 c-7 -57 -12 -1334
-8 -2095 l2 -472 68 25 c133 49 119 35 126 132 3 48 6 96 5 107 -1 17 -3 476
-10 2008 -1 207 -5 377 -8 377 -3 -1 -17 -7 -31 -15z"/>
<path d="M11165 8121 c-33 -15 -117 -55 -187 -89 -70 -34 -130 -62 -134 -62
-6 0 -119 -48 -189 -80 -223 -103 -431 -184 -552 -215 -93 -23 -100 -26 -138
-72 -65 -77 -136 -142 -193 -175 -29 -16 -51 -33 -48 -35 3 -3 11 -1 18 4 7 6
67 33 133 61 121 51 229 101 275 127 14 8 55 28 93 45 37 18 67 37 67 45 0 7
12 17 28 23 62 24 69 24 91 -4 l21 -27 86 42 c47 22 92 41 100 41 20 0 17 -19
-3 -27 -10 -3 -49 -20 -88 -39 -90 -42 -154 -64 -160 -54 -3 5 -1 11 5 15 15
9 12 25 -4 25 -22 0 -50 -31 -36 -40 14 -9 -109 -70 -158 -77 -20 -3 -66 -19
-102 -35 -36 -16 -74 -34 -85 -39 -11 -4 -51 -20 -90 -34 -103 -38 -195 -78
-195 -87 0 -4 5 -10 10 -13 19 -12 450 147 450 166 0 4 16 11 35 15 19 3 33 9
31 13 -2 3 16 7 40 7 24 1 44 0 44 -2 0 -12 -96 -61 -155 -79 -94 -29 -408
-145 -418 -155 -5 -4 -1 -14 7 -23 14 -14 20 -13 63 3 27 9 59 21 73 25 24 7
24 6 5 -8 -11 -8 -38 -20 -60 -27 -47 -15 -60 -24 -51 -39 8 -12 176 70 197
95 6 8 15 14 20 14 4 0 50 23 101 51 203 112 259 141 264 136 3 -3 -30 -25
-73 -50 -139 -80 -397 -224 -443 -247 -25 -12 -47 -24 -49 -26 -7 -6 30 -74
40 -74 19 0 303 72 514 131 77 21 178 47 225 58 127 30 199 57 261 100 31 21
98 54 150 74 139 52 200 81 243 116 21 17 43 31 47 31 5 0 34 -12 64 -26 52
-25 58 -26 73 -11 10 11 17 39 20 80 4 63 1 75 -46 171 -2 4 9 5 26 1 36 -8
50 8 27 32 -25 24 -87 65 -92 59 -9 -9 18 -46 34 -46 13 0 13 -2 2 -16 -12
-14 -16 -12 -41 18 -15 18 -28 43 -28 55 0 12 -12 35 -27 50 -14 15 -23 22
-19 16 5 -9 2 -11 -10 -6 -11 4 -13 8 -6 11 16 5 15 37 -2 51 -8 7 -17 23 -20
36 -8 31 -8 31 -81 -4z m48 -88 c-33 -17 -51 -13 -38 6 3 6 21 11 38 10 l32 0
-32 -16z m-69 -9 c26 -10 37 -39 26 -68 -11 -30 -31 -35 -23 -7 7 27 -49 39
-82 17 -14 -9 -25 -21 -25 -26 0 -6 -7 -10 -15 -10 -8 0 -15 4 -15 10 0 20 24
60 37 60 7 0 13 4 13 9 0 16 56 26 84 15z m-244 -149 c0 -8 -7 -15 -15 -15
-26 0 -18 20 13 29 1 1 2 -6 2 -14z m94 -18 c-21 -11 -74 -35 -117 -52 -43
-18 -81 -35 -84 -39 -4 -3 -16 2 -27 13 -31 27 -66 36 -66 16 0 -14 -36 -35
-61 -35 -15 0 -10 33 10 59 11 14 29 24 49 25 17 1 34 4 37 8 4 4 17 0 29 -8
13 -8 26 -11 29 -7 4 3 7 -1 7 -10 0 -25 25 -21 125 22 92 38 139 44 69 8z
m-329 -163 c-31 -24 -207 -126 -210 -122 -11 11 -16 58 -6 58 6 0 11 -7 11
-15 0 -13 7 -12 40 5 22 11 45 29 52 39 6 11 17 17 24 14 6 -2 29 5 50 16 45
24 68 27 39 5z m-505 -168 c0 -2 -7 -7 -16 -10 -8 -3 -12 -2 -9 4 6 10 25 14
25 6z"/>
<path d="M10260 7609 c-19 -11 -26 -17 -15 -14 11 4 35 11 53 17 17 5 32 11
32 13 0 11 -38 2 -70 -16z"/>
<path d="M3488 7545 c-169 -32 -312 -107 -434 -230 -70 -69 -90 -97 -132 -186
-109 -224 -106 -426 9 -622 79 -133 196 -232 371 -312 229 -105 733 -126 1024
-45 125 35 162 56 239 133 80 80 94 111 120 257 50 287 -21 526 -218 736 -118
125 -277 221 -429 260 -91 23 -445 29 -550 9z m613 -381 c133 -40 240 -119
285 -210 20 -42 28 -74 32 -142 4 -81 3 -91 -23 -140 -15 -29 -36 -57 -47 -63
-23 -12 -23 -13 14 56 37 70 44 146 23 224 -11 37 -25 66 -36 72 -11 5 -19 14
-19 20 0 18 -54 57 -140 101 l-85 43 -125 -1 c-117 0 -130 -3 -201 -32 -82
-35 -102 -48 -161 -104 -45 -41 -65 -95 -94 -249 -17 -87 -19 -91 -24 -54 l-6
40 -6 -35 c-3 -25 -5 -16 -6 30 -5 208 140 395 344 444 81 20 208 20 275 0z
m71 -422 c39 -43 47 -61 26 -58 -7 0 -56 -5 -110 -13 -53 -7 -101 -10 -106 -7
-6 3 -13 2 -17 -4 -10 -16 -25 -1 -25 25 0 27 43 82 74 96 12 5 43 7 70 5 43
-3 55 -9 88 -44z m-573 -249 c22 -29 75 -78 117 -110 42 -32 91 -70 108 -85
l31 -27 -30 -1 c-32 0 -112 38 -148 71 -84 77 -98 95 -95 119 2 17 -2 25 -12
25 -8 0 -15 9 -15 20 0 11 -4 26 -9 34 -22 34 15 1 53 -46z"/>
<path d="M9468 7281 c-157 -80 -188 -104 -155 -117 14 -5 110 35 255 105 69
35 82 44 82 65 0 14 -3 26 -7 28 -5 2 -83 -34 -175 -81z"/>
<path d="M9645 7291 c-11 -10 -148 -79 -252 -126 -63 -28 -73 -41 -52 -62 12
-12 25 -8 173 61 44 20 101 46 128 58 50 21 56 32 34 61 -15 20 -19 20 -31 8z"/>
<path d="M9203 7239 c-2 -29 1 -39 13 -39 11 0 14 9 12 35 -3 48 -22 51 -25 4z"/>
<path d="M9246 7182 c-2 -4 -72 -39 -155 -77 -83 -39 -151 -75 -151 -81 0 -6
6 -17 14 -23 11 -9 36 -2 117 34 57 25 108 45 114 45 25 0 95 65 95 87 0 22
-23 32 -34 15z"/>
<path d="M8525 6850 c-132 -62 -215 -105 -215 -110 0 -4 6 -14 13 -23 11 -16
20 -14 117 29 180 79 179 78 164 118 -8 20 -7 20 -79 -14z"/>
<path d="M8555 6779 c-27 -11 -87 -38 -133 -59 -76 -36 -82 -42 -72 -60 6 -11
16 -20 22 -20 7 0 64 24 127 54 64 29 124 56 134 60 24 8 18 40 -8 43 -11 1
-42 -8 -70 -18z"/>
<path d="M8260 6729 c-8 -5 -63 -31 -122 -59 -60 -27 -108 -52 -108 -56 0 -4
7 -15 16 -25 11 -13 21 -15 33 -9 49 28 215 99 219 95 9 -8 -1 -14 -114 -64
-106 -46 -123 -61 -105 -89 6 -11 32 -4 122 33 139 57 147 63 126 102 -8 15
-20 40 -26 56 -11 29 -17 31 -41 16z"/>
<path d="M7224 6279 c-6 -10 -96 -54 -146 -72 -15 -5 -16 -10 -6 -32 6 -14 15
-25 20 -25 8 0 179 78 186 85 1 1 -3 14 -9 29 -13 27 -33 34 -45 15z"/>
<path d="M6736 6157 c3 -10 9 -15 12 -12 3 3 0 11 -7 18 -10 9 -11 8 -5 -6z"/>
<path d="M6785 6089 c-33 -16 -72 -33 -88 -39 l-29 -10 22 -30 c17 -23 25 -27
38 -20 9 6 47 23 84 39 64 28 66 31 59 57 -4 15 -11 29 -17 30 -5 1 -36 -11
-69 -27z"/>
<path d="M6573 6002 c-67 -27 -72 -35 -48 -69 l15 -22 63 26 c79 32 84 36 63
67 -19 30 -14 30 -93 -2z"/>
<path d="M6466 5961 c-3 -5 -28 -17 -56 -27 -55 -20 -54 -18 -39 -63 12 -35
16 -37 44 -17 11 8 39 19 63 26 23 7 42 15 42 18 0 7 -41 72 -45 72 -2 0 -6
-4 -9 -9z"/>
<path d="M6275 5874 c-27 -13 -56 -24 -63 -24 -9 0 -11 -7 -7 -22 14 -46 26
-48 93 -20 34 14 62 30 62 36 0 6 -8 21 -18 32 l-17 22 -50 -24z"/>
<path d="M6140 5815 c-14 -8 -33 -14 -42 -15 -21 0 -22 -8 -8 -44 5 -14 16
-26 24 -26 12 0 71 23 94 36 6 4 -28 64 -36 64 -4 -1 -18 -7 -32 -15z"/>
<path d="M6020 5765 c-14 -7 -33 -16 -44 -19 -14 -5 -17 -12 -11 -34 10 -40
16 -43 65 -26 60 21 64 26 46 63 -19 35 -21 36 -56 16z"/>
<path d="M6205 5742 c-6 -5 -27 -15 -47 -22 -21 -6 -38 -16 -38 -21 0 -11 38
-89 44 -89 1 0 26 13 55 28 45 25 50 31 36 42 -8 7 -15 18 -15 24 0 21 -25 47
-35 38z"/>
<path d="M5883 5704 c-36 -15 -42 -38 -19 -69 13 -19 15 -19 55 -1 45 21 49
30 25 64 -17 25 -18 25 -61 6z"/>
<path d="M6045 5669 c-22 -10 -44 -20 -49 -22 -5 -1 1 -22 13 -45 l21 -42 51
20 c28 10 53 21 56 24 6 6 -36 86 -45 85 -4 0 -25 -9 -47 -20z"/>
<path d="M5773 5660 l-42 -20 15 -30 c9 -16 20 -30 25 -30 15 0 79 28 79 35 0
7 -29 65 -33 65 -1 -1 -21 -10 -44 -20z"/>
<path d="M5663 5614 c-18 -8 -33 -16 -33 -18 0 -6 22 -66 24 -66 10 0 73 25
83 32 10 8 9 16 -3 39 -16 32 -24 34 -71 13z"/>
<path d="M5923 5614 c-18 -8 -33 -19 -33 -25 0 -16 33 -69 43 -69 11 0 77 31
77 36 0 2 -8 19 -17 39 -18 39 -23 40 -70 19z"/>
<path d="M5585 5577 c-4 -9 -5 -27 -2 -40 l6 -22 -16 23 c-18 26 -23 27 -69 7
l-35 -14 16 -31 c18 -35 25 -36 79 -11 23 10 49 21 59 24 23 8 22 16 -7 52
-21 26 -25 28 -31 12z"/>
<path d="M5813 5570 c-24 -11 -43 -21 -43 -24 0 -12 34 -76 41 -76 16 0 79 31
79 39 0 10 -29 81 -33 80 -1 0 -21 -9 -44 -19z"/>
<path d="M1410 5558 c0 -9 5 -20 10 -23 13 -8 13 5 0 25 -8 13 -10 13 -10 -2z"/>
<path d="M5402 5502 c-21 -16 -22 -21 -11 -45 13 -30 26 -33 64 -15 28 13 30
17 13 53 -13 29 -34 32 -66 7z"/>
<path d="M5322 5468 c-17 -8 -21 -17 -16 -32 12 -38 23 -45 54 -35 27 10 28
11 15 42 -15 36 -22 40 -53 25z"/>
<path d="M5553 5464 l-33 -14 17 -36 c16 -32 21 -35 47 -30 40 8 41 10 26 56
-15 45 -13 44 -57 24z"/>
<path d="M5235 5433 c-16 -9 -31 -17 -33 -18 -5 -4 27 -65 34 -65 16 0 64 32
64 43 0 6 -8 22 -18 34 -16 21 -19 21 -47 6z"/>
<path d="M5457 5419 l-37 -19 15 -36 c8 -20 15 -38 15 -39 0 -1 20 5 45 14 25
9 45 19 45 23 0 7 -41 79 -43 77 -1 -1 -19 -10 -40 -20z m21 -48 c3 -8 -1 -12
-9 -9 -7 2 -15 10 -17 17 -3 8 1 12 9 9 7 -2 15 -10 17 -17z"/>
<path d="M5145 5390 c-3 -5 -15 -10 -26 -10 -24 0 -25 -21 -1 -49 16 -21 19
-21 55 -6 42 18 42 17 21 50 -17 26 -38 32 -49 15z"/>
<path d="M5353 5380 c-13 -5 -23 -12 -23 -15 0 -6 29 -66 36 -73 3 -5 74 18
74 23 0 2 -9 20 -21 39 -22 38 -30 41 -66 26z"/>
<path d="M5041 5351 c-12 -8 -12 -12 -2 -25 8 -9 10 -16 6 -16 -4 0 -13 7 -19
15 -7 9 -19 12 -34 8 -19 -5 -22 -10 -17 -32 12 -49 41 -65 64 -37 7 8 26 18
42 21 33 8 36 21 10 53 -21 24 -29 26 -50 13z"/>
<path d="M5268 5344 c-33 -17 -34 -26 -11 -65 12 -20 23 -27 33 -23 8 3 23 9
33 11 21 7 21 13 0 58 -19 40 -18 39 -55 19z"/>
<path d="M5178 5304 c-16 -8 -28 -17 -28 -20 0 -4 23 -44 37 -63 3 -4 63 19
63 25 0 9 -34 74 -39 74 -3 -1 -18 -8 -33 -16z"/>
<path d="M5223 5208 c-27 -13 -28 -19 -8 -59 13 -25 20 -28 43 -23 40 10 43
16 25 57 -18 39 -25 42 -60 25z"/>
<path d="M4876 5111 c-17 -6 -17 -8 -3 -14 8 -3 21 1 27 9 13 15 6 17 -24 5z"/>
<path d="M4810 5070 c0 -5 5 -10 10 -10 6 0 10 5 10 10 0 6 -4 10 -10 10 -5 0
-10 -4 -10 -10z"/>
<path d="M3251 10044 c0 -11 3 -14 6 -6 3 7 2 16 -1 19 -3 4 -6 -2 -5 -13z"/>
<path d="M2332 7860 c0 -14 2 -19 5 -12 2 6 2 18 0 25 -3 6 -5 1 -5 -13z"/>
<path d="M2170 7393 c-24 -9 -60 -45 -60 -61 0 -10 7 -12 28 -7 81 19 139 76
75 74 -15 0 -35 -3 -43 -6z"/>
<path d="M1820 6900 c0 -5 5 -10 11 -10 5 0 7 5 4 10 -3 6 -8 10 -11 10 -2 0
-4 -4 -4 -10z"/>
<path d="M1501 6074 c0 -11 3 -14 6 -6 3 7 2 16 -1 19 -3 4 -6 -2 -5 -13z"/>
<path d="M4650 6028 c-30 -33 -27 -91 6 -117 34 -27 46 -26 83 5 21 18 31 35
31 54 0 19 -10 36 -31 54 -37 32 -62 33 -89 4z"/>
<path d="M1467 5661 c3 -12 9 -21 14 -21 14 0 11 16 -5 29 -12 10 -13 8 -9 -8z"/>
<path d="M1560 5482 c0 -11 6 -22 14 -25 10 -4 12 0 9 14 -7 27 -23 34 -23 11z"/>
<path d="M10831 5254 c0 -11 3 -14 6 -6 3 7 2 16 -1 19 -3 4 -6 -2 -5 -13z"/>
<path d="M10772 5095 c0 -16 2 -22 5 -12 2 9 2 23 0 30 -3 6 -5 -1 -5 -18z"/>
<path d="M4660 5100 c0 -5 4 -10 9 -10 6 0 13 5 16 10 3 6 -1 10 -9 10 -9 0
-16 -4 -16 -10z"/>
<path d="M4630 5080 c-9 -6 -10 -10 -3 -10 6 0 15 5 18 10 8 12 4 12 -15 0z"/>
<path d="M4558 5043 c7 -3 16 -2 19 1 4 3 -2 6 -13 5 -11 0 -14 -3 -6 -6z"/>
<path d="M5044 5014 c-18 -14 -18 -14 6 -3 31 14 36 19 24 19 -6 0 -19 -7 -30
-16z"/>
<path d="M5105 4763 c-11 -3 -35 -16 -55 -29 -19 -13 -40 -24 -47 -24 -7 0
-13 -4 -13 -10 0 -13 27 -13 35 -1 3 6 26 20 51 33 25 12 48 26 50 30 3 4 4 7
2 7 -2 -1 -12 -4 -23 -6z"/>
<path d="M4688 5013 c6 -2 18 -2 25 0 6 3 1 5 -13 5 -14 0 -19 -2 -12 -5z"/>
<path d="M10301 4674 c0 -11 3 -14 6 -6 3 7 2 16 -1 19 -3 4 -6 -2 -5 -13z"/>
<path d="M3913 4907 c-34 -17 -64 -36 -67 -43 -7 -17 24 -53 30 -36 3 6 10 10
14 7 14 -8 132 54 128 67 -2 6 -13 17 -24 23 -16 10 -29 7 -81 -18z"/>
<path d="M4474 4484 c-18 -14 -18 -14 6 -3 31 14 36 19 24 19 -6 0 -19 -7 -30
-16z"/>
<path d="M4375 4439 c-22 -10 -35 -19 -29 -19 15 0 84 29 84 35 0 8 -13 4 -55
-16z"/>
<path d="M3930 4740 c-9 -6 -10 -10 -3 -10 6 0 15 5 18 10 8 12 4 12 -15 0z"/>
<path d="M4043 4606 c-76 -33 -100 -55 -35 -32 46 17 122 54 122 61 0 8 -12 4
-87 -29z"/>
<path d="M4130 4590 c-12 -7 -10 -9 8 -7 12 0 22 5 22 9 0 11 -12 10 -30 -2z"/>
<path d="M4040 4550 c-19 -11 -30 -19 -25 -19 6 0 26 8 45 19 19 11 31 19 25
19 -5 0 -26 -8 -45 -19z"/>
<path d="M4010 4489 c0 -5 5 -7 10 -4 6 3 10 8 10 11 0 2 -4 4 -10 4 -5 0 -10
-5 -10 -11z"/>
<path d="M4135 4469 c-59 -29 -99 -59 -80 -59 6 0 36 16 68 35 32 19 62 35 67
35 5 0 12 5 15 10 10 16 -7 11 -70 -21z"/>
<path d="M4173 4283 c-18 -9 -33 -20 -33 -25 0 -15 19 -8 47 17 33 28 30 30
-14 8z"/>
<path d="M8398 4432 c-26 -9 -50 -20 -54 -24 -4 -5 -16 -8 -26 -8 -10 0 -26
-6 -35 -14 -10 -8 -38 -31 -63 -52 -89 -72 -168 -202 -191 -313 -6 -30 -9 -94
-7 -141 4 -77 8 -95 50 -181 73 -150 187 -245 329 -275 100 -21 227 -6 315 37
232 115 365 415 286 649 -45 133 -155 252 -287 311 -69 30 -248 37 -317 11z
m323 -641 c20 -21 29 -39 29 -63 0 -19 -3 -28 -8 -21 -6 10 -13 9 -33 -1 -23
-12 -62 -21 -128 -31 -23 -3 -23 -2 -18 48 3 39 11 56 31 74 39 33 90 31 127
-6z m-291 -51 c22 0 54 -98 39 -121 -5 -9 -9 -9 -9 -3 0 17 -49 33 -90 31 -29
-2 -36 2 -38 20 -6 43 40 89 76 77 8 -2 18 -4 22 -4z"/>
<path d="M8144 4360 c-10 -11 -30 -31 -44 -45 -13 -14 -21 -25 -16 -25 11 0
56 36 52 41 -2 2 2 10 10 17 11 10 14 10 14 0 0 -9 3 -9 12 0 8 8 9 15 2 22
-7 7 -17 4 -30 -10z"/>
<path d="M9010 3697 c0 -9 -16 -34 -35 -55 -19 -22 -32 -42 -28 -46 4 -4 19 8
34 26 28 32 45 75 34 86 -3 3 -5 -2 -5 -11z"/>
<path d="M8815 3480 c-3 -5 -1 -10 4 -10 6 0 11 5 11 10 0 6 -2 10 -4 10 -3 0
-8 -4 -11 -10z"/>
<path d="M8760 3446 c-19 -13 -46 -27 -59 -31 -14 -4 -45 -19 -70 -32 -25 -14
-37 -22 -26 -18 11 4 37 9 58 12 21 3 41 12 44 19 3 8 13 14 22 14 9 0 28 11
43 24 14 14 29 22 34 18 4 -4 4 -1 0 6 -9 15 -5 16 -46 -12z"/>
<path d="M4550 4198 c-83 -88 -217 -209 -352 -317 -36 -29 -89 -81 -116 -114
-28 -34 -72 -84 -97 -112 -66 -72 -80 -100 -61 -126 8 -12 24 -28 36 -36 20
-14 24 -13 48 8 15 13 33 30 39 38 27 31 24 -1 -3 -40 l-28 -41 29 -24 c45
-35 91 -58 107 -52 8 3 30 45 48 93 53 137 149 272 316 445 165 172 191 214
173 284 -11 44 -35 87 -47 85 -4 -1 -45 -42 -92 -91z"/>
<path d="M9714 3085 c-37 -22 -81 -71 -72 -80 2 -2 25 3 50 13 63 22 103 10
103 -32 0 -30 -5 -32 -80 -38 -5 0 -27 3 -47 7 -30 6 -38 4 -38 -7 0 -30 70
-78 114 -78 70 0 113 56 117 155 2 50 0 60 -14 60 -9 0 -22 6 -29 13 -19 19
-59 14 -104 -13z"/>
<path d="M9885 2970 c-3 -5 -1 -10 4 -10 6 0 11 5 11 10 0 6 -2 10 -4 10 -3 0
-8 -4 -11 -10z"/>
<path d="M5954 2940 c-45 -6 -94 -34 -94 -52 0 -24 45 -81 97 -123 30 -25 59
-45 64 -45 5 0 26 15 47 34 l37 34 -24 26 c-27 29 -58 33 -87 11 -23 -17 -34
-19 -34 -5 0 20 41 50 68 50 32 -1 96 -55 89 -75 -4 -10 13 -13 76 -14 45 -1
97 -4 115 -7 39 -8 40 -2 5 31 -104 97 -246 151 -359 135z"/>
<path d="M6752 2939 c-59 -11 -174 -75 -219 -121 l-38 -39 120 3 120 3 3 26
c4 34 29 57 71 65 29 6 36 2 76 -40 49 -50 60 -50 99 1 18 24 18 25 -10 55
-52 55 -115 68 -222 47z"/>
<path d="M6765 2820 c-23 -25 -10 -58 29 -80 24 -12 31 -12 53 0 44 25 51 46
23 75 -29 31 -79 34 -105 5z"/>
<path d="M940 1540 c0 -5 5 -10 11 -10 5 0 7 5 4 10 -3 6 -8 10 -11 10 -2 0
-4 -4 -4 -10z"/>
<path d="M1371 1447 c-13 -16 -5 -27 21 -27 11 0 18 7 18 20 0 23 -22 27 -39
7z"/>
<path d="M1310 1100 c-8 -5 -10 -10 -5 -10 6 0 17 5 25 10 8 5 11 10 5 10 -5
0 -17 -5 -25 -10z"/>
<path d="M845 1011 c-3 -5 -2 -12 3 -15 5 -3 9 1 9 9 0 17 -3 19 -12 6z"/>
<path d="M825 980 c3 -5 8 -10 11 -10 2 0 4 5 4 10 0 6 -5 10 -11 10 -5 0 -7
-4 -4 -10z"/>
<path d="M990 861 c0 -6 4 -13 10 -16 6 -3 7 1 4 9 -7 18 -14 21 -14 7z"/>
<path d="M970 841 c0 -10 19 -25 25 -20 1 2 -3 10 -11 17 -8 7 -14 8 -14 3z"/>
<path d="M1205 620 c3 -5 8 -10 11 -10 2 0 4 5 4 10 0 6 -5 10 -11 10 -5 0 -7
-4 -4 -10z"/>
</g>
</svg>
